<?xml version="1.0" standalone="no"?>
<!DOCTYPE svg PUBLIC "-//W3C//DTD SVG 20010904//EN"
 "http://www.w3.org/TR/2001/REC-SVG-20010904/DTD/svg10.dtd">
<svg version="1.0" xmlns="http://www.w3.org/2000/svg"
 width="500.000000pt" height="500.000000pt" viewBox="0 0 500.000000 500.000000"
 preserveAspectRatio="xMidYMid meet">
<metadata>
Created by potrace 1.11, written by Peter Selinger 2001-2013
</metadata>
<g transform="translate(0.000000,500.000000) scale(0.100000,-0.100000)"
fill="#000000" stroke="none">
<path d="M3320 4314 c-14 -2 -56 -9 -95 -15 -219 -35 -466 -153 -660 -317 -37
-31 -73 -61 -79 -66 -7 -5 -59 13 -136 49 -258 118 -393 150 -630 150 -182 -1
-275 -15 -440 -67 -114 -36 -323 -134 -440 -207 -197 -123 -424 -314 -601
-507 -143 -156 -179 -208 -179 -259 0 -38 7 -52 48 -102 82 -97 235 -237 331
-301 460 -308 947 -262 1404 134 l88 76 77 -27 c157 -56 382 -150 552 -230
186 -88 337 -143 463 -169 473 -98 934 28 1372 374 106 84 324 304 408 411
117 152 137 186 137 238 l0 46 -142 140 c-421 413 -879 638 -1323 650 -71 2
-141 2 -155 -1z m338 -250 c283 -51 633 -242 915 -500 l56 -51 -76 -17 c-361
-79 -861 -23 -1428 161 -171 55 -405 143 -405 152 0 14 171 126 255 166 216
106 435 134 683 89z m-1721 -200 c43 -8 105 -25 138 -36 70 -23 225 -94 225
-103 0 -3 -22 -32 -49 -65 -27 -33 -80 -103 -117 -157 -74 -107 -195 -268
-241 -321 l-28 -33 -159 41 c-172 44 -378 82 -546 101 -123 14 -485 15 -584 1
l-70 -9 65 59 c355 323 679 495 1019 538 87 12 252 4 347 -16z m760 -300 c440
-173 861 -284 1225 -323 112 -13 437 -13 518 -2 30 5 57 7 59 4 8 -6 -108
-120 -207 -203 -232 -195 -484 -321 -730 -366 -51 -9 -143 -16 -222 -16 -232
0 -390 42 -687 181 -171 80 -351 157 -480 206 l-73 27 54 66 c29 37 95 126
145 197 73 104 220 295 228 295 0 0 77 -30 170 -66z m-1472 -519 c132 -18 401
-72 424 -85 22 -12 -103 -100 -234 -165 -142 -70 -218 -89 -365 -89 -126 1
-197 15 -313 65 -127 54 -375 233 -345 250 12 7 180 34 263 43 87 9 456 -3
570 -19z"/>
<path d="M4009 2257 c-103 -29 -172 -88 -218 -187 -20 -44 -26 -75 -29 -152
l-4 -98 -94 0 -94 0 0 -105 0 -105 95 0 95 0 0 -450 0 -450 125 0 125 0 0 450
0 450 110 0 110 0 0 105 0 105 -110 0 -110 0 0 65 c0 120 57 182 158 172 26
-2 56 -8 68 -11 18 -7 22 1 46 86 20 69 24 95 15 100 -48 31 -216 45 -288 25z"/>
<path d="M3260 2237 c-108 -57 -108 -215 0 -269 104 -53 220 19 220 136 0 66
-27 111 -83 136 -55 26 -85 25 -137 -3z"/>
<path d="M4460 2238 c-54 -28 -83 -75 -83 -133 0 -152 194 -210 281 -84 20 28
23 44 20 92 -4 46 -10 63 -34 88 -32 35 -81 59 -117 59 -12 0 -43 -10 -67 -22z"/>
<path d="M2587 2123 c-4 -3 -7 -73 -7 -155 l0 -148 -90 0 -90 0 0 -105 0 -105
89 0 89 0 4 -362 c3 -356 4 -364 27 -415 27 -61 82 -115 137 -134 23 -8 78
-14 134 -14 77 1 105 5 147 24 79 35 79 37 47 141 -22 74 -30 90 -43 84 -70
-30 -100 -36 -127 -22 -15 7 -37 26 -48 41 -20 27 -21 42 -24 343 l-4 314 116
0 116 0 0 105 0 105 -115 0 -115 0 0 155 0 155 -118 0 c-65 0 -122 -3 -125 -7z"/>
<path d="M1680 1834 c-241 -64 -404 -272 -417 -534 -15 -288 139 -517 402
-596 82 -25 275 -25 365 -1 76 20 191 76 238 116 l34 29 -52 73 c-29 41 -56
78 -60 82 -4 5 -28 -7 -53 -26 -79 -60 -147 -81 -267 -81 -87 -1 -113 3 -152
21 -92 42 -167 133 -188 229 l-8 34 424 0 424 0 0 88 c0 285 -172 520 -418
571 -73 15 -206 13 -272 -5z m262 -210 c91 -30 168 -125 184 -223 l7 -41 -308
0 -307 0 7 37 c17 93 84 180 170 219 61 29 176 33 247 8z"/>
<path d="M320 1715 l0 -105 268 -2 268 -3 -267 -350 -268 -350 -1 -97 0 -98
440 0 440 0 0 110 0 110 -274 2 -274 3 273 355 274 355 0 88 1 87 -440 0 -440
0 0 -105z"/>
<path d="M3200 1265 l0 -555 130 0 130 0 0 555 0 555 -130 0 -130 0 0 -555z"/>
<path d="M4400 1265 l0 -555 125 0 125 0 0 555 0 555 -125 0 -125 0 0 -555z"/>
</g>
</svg>
