<?xml version="1.0" encoding="utf-8"?>
<!-- Generator: Adobe Illustrator 24.1.2, SVG Export Plug-In . SVG Version: 6.00 Build 0)  -->
<svg version="1.1" id="Layer_1" xmlns="http://www.w3.org/2000/svg" xmlns:xlink="http://www.w3.org/1999/xlink" x="0px" y="0px"
	 viewBox="0 0 449.3 85" style="enable-background:new 0 0 449.3 85;" xml:space="preserve">
<style type="text/css">
	.st0{display:none;}
	.st1{display:inline;fill:#222221;}
	.st2{display:none;fill:none;stroke:#222221;stroke-width:0.5;stroke-miterlimit:10;stroke-dasharray:4.9215,4.9215;}
	.st3{fill:#AFBCCC;}
</style>
<g class="st0">
	<path class="st1" d="M491.8-42.5h-4.9v0.5h4.9V-42.5L491.8-42.5z M482-42.5H477v0.5h4.9V-42.5L482-42.5z M472.1-42.5h-4.9v0.5h4.9
		V-42.5L472.1-42.5z M462.3-42.5h-4.9v0.5h4.9V-42.5L462.3-42.5z M452.4-42.5h-4.9v0.5h4.9V-42.5L452.4-42.5z M442.6-42.5h-4.9v0.5
		h4.9V-42.5L442.6-42.5z M432.8-42.5h-4.9v0.5h4.9V-42.5L432.8-42.5z M422.9-42.5H418v0.5h4.9V-42.5L422.9-42.5z M413.1-42.5h-4.9
		v0.5h4.9V-42.5L413.1-42.5z M403.2-42.5h-4.9v0.5h4.9V-42.5L403.2-42.5z M393.4-42.5h-4.9v0.5h4.9V-42.5L393.4-42.5z M383.5-42.5
		h-4.9v0.5h4.9V-42.5L383.5-42.5z M373.7-42.5h-4.9v0.5h4.9V-42.5L373.7-42.5z M363.9-42.5h-4.9v0.5h4.9V-42.5L363.9-42.5z
		 M354-42.5h-4.9v0.5h4.9V-42.5L354-42.5z M344.2-42.5h-4.9v0.5h4.9V-42.5L344.2-42.5z M334.3-42.5h-4.9v0.5h4.9V-42.5L334.3-42.5z
		 M324.5-42.5h-4.9v0.5h4.9V-42.5L324.5-42.5z M314.6-42.5h-4.9v0.5h4.9V-42.5L314.6-42.5z M304.8-42.5h-4.9v0.5h4.9V-42.5
		L304.8-42.5z M295-42.5H290v0.5h4.9V-42.5L295-42.5z M285.1-42.5h-4.9v0.5h4.9V-42.5L285.1-42.5z M275.3-42.5h-4.9v0.5h4.9V-42.5
		L275.3-42.5z M265.4-42.5h-4.9v0.5h4.9V-42.5L265.4-42.5z M255.6-42.5h-4.9v0.5h4.9V-42.5L255.6-42.5z M245.7-42.5h-4.9v0.5h4.9
		V-42.5L245.7-42.5z M235.9-42.5H231v0.5h4.9V-42.5L235.9-42.5z M226-42.5h-4.9v0.5h4.9V-42.5L226-42.5z M216.2-42.5h-4.9v0.5h4.9
		V-42.5L216.2-42.5z M206.4-42.5h-4.9v0.5h4.9V-42.5L206.4-42.5z M196.5-42.5h-4.9v0.5h4.9V-42.5L196.5-42.5z M186.7-42.5h-4.9v0.5
		h4.9V-42.5L186.7-42.5z M176.8-42.5h-4.9v0.5h4.9V-42.5L176.8-42.5z M167-42.5h-4.9v0.5h4.9V-42.5L167-42.5z M157.1-42.5h-4.9v0.5
		h4.9V-42.5L157.1-42.5z M147.3-42.5h-4.9v0.5h4.9V-42.5L147.3-42.5z M137.5-42.5h-4.9v0.5h4.9V-42.5L137.5-42.5z M127.6-42.5h-4.9
		v0.5h4.9V-42.5L127.6-42.5z M117.8-42.5h-4.9v0.5h4.9V-42.5L117.8-42.5z M107.9-42.5H103v0.5h4.9V-42.5L107.9-42.5z M98.1-42.5
		h-4.9v0.5h4.9V-42.5L98.1-42.5z M88.2-42.5h-4.9v0.5h4.9V-42.5L88.2-42.5z M78.4-42.5h-4.9v0.5h4.9V-42.5L78.4-42.5z M68.6-42.5
		h-4.9v0.5h4.9V-42.5L68.6-42.5z M58.7-42.5h-4.9v0.5h4.9V-42.5L58.7-42.5z M48.9-42.5H44v0.5h4.9V-42.5L48.9-42.5z M39-42.5h-4.9
		v0.5H39L39-42.5L39-42.5z M29.2-42.5h-4.9v0.5h4.9V-42.5L29.2-42.5z M19.3-42.5h-4.9v0.5h4.9V-42.5L19.3-42.5z M9.5-42.5H4.6v0.5
		h4.9V-42.5L9.5-42.5z M-0.3-42.5h-4.9v0.5h4.9V-42.5L-0.3-42.5z M-10.2-42.5h-4.9v0.5h4.9V-42.5L-10.2-42.5z M-20-42.5h-4.9v0.5
		h4.9V-42.5L-20-42.5z M-29.9-42.5h-4.9v0.5h4.9V-42.5L-29.9-42.5z M-39.7-42.5h-2.8v0.5l0,0c0,0.6,0,1.6,0,1.6h0.5V-42h2.3V-42.5
		L-39.7-42.5z M-42-35.5h-0.5v4.9h0.5V-35.5L-42-35.5z M-42-25.6h-0.5v4.9h0.5V-25.6L-42-25.6z M-42-15.8h-0.5v4.9h0.5V-15.8
		L-42-15.8z M-42-6h-0.5V-1h0.5V-6L-42-6z M-42,3.9h-0.5v4.9h0.5V3.9L-42,3.9z M-42,13.7h-0.5v4.9h0.5V13.7L-42,13.7z M-42,23.6
		h-0.5v4.9h0.5V23.6L-42,23.6z M-42,33.4h-0.5v4.9h0.5V33.4L-42,33.4z M-42,43.3h-0.5v4.9h0.5V43.3L-42,43.3z M-42,53.1h-0.5V58h0.5
		V53.1L-42,53.1z M-42,62.9h-0.5v4.9h0.5V62.9L-42,62.9z M-42,72.8h-0.5v4.9h0.5V72.8L-42,72.8z M-42,82.6h-0.5v4.9h0.5V82.6
		L-42,82.6z M-42,92.5h-0.5v4.9h0.5V92.5L-42,92.5z M-42,102.3h-0.5v4.9h0.5V102.3L-42,102.3z M-42,112.2h-0.5v4.9h0.5V112.2
		L-42,112.2z M-42,122h-0.5v4.9h0.5V122L-42,122z M-42,131.8h-0.5v4.9h0.5V131.8L-42,131.8z M-42,141.7h-0.5v2.9h0.5l0,0l0,0l0,0
		l0,0c0.6,0,1.5,0,1.5,0v-0.5H-42V141.7L-42,141.7z M-30.6,144.1h-4.9v0.5h4.9V144.1L-30.6,144.1z M-20.8,144.1h-4.9v0.5h4.9
		L-20.8,144.1L-20.8,144.1z M-10.9,144.1h-4.9v0.5h4.9V144.1L-10.9,144.1z M-1.1,144.1H-6v0.5h4.9V144.1L-1.1,144.1z M8.7,144.1H3.8
		v0.5h4.9V144.1L8.7,144.1z M18.6,144.1h-4.9v0.5h4.9V144.1L18.6,144.1z M28.4,144.1h-4.9v0.5h4.9V144.1L28.4,144.1z M38.3,144.1
		h-4.9v0.5h4.9V144.1L38.3,144.1z M48.1,144.1h-4.9v0.5h4.9V144.1L48.1,144.1z M58,144.1H53v0.5H58V144.1L58,144.1z M67.8,144.1
		h-4.9v0.5h4.9V144.1L67.8,144.1z M77.6,144.1h-4.9v0.5h4.9V144.1L77.6,144.1z M87.5,144.1h-4.9v0.5h4.9V144.1L87.5,144.1z
		 M97.3,144.1h-4.9v0.5h4.9V144.1L97.3,144.1z M107.2,144.1h-4.9v0.5h4.9V144.1L107.2,144.1z M117,144.1h-4.9v0.5h4.9V144.1
		L117,144.1z M126.9,144.1h-4.9v0.5h4.9V144.1L126.9,144.1z M136.7,144.1h-4.9v0.5h4.9V144.1L136.7,144.1z M146.5,144.1h-4.9v0.5
		h4.9V144.1L146.5,144.1z M156.4,144.1h-4.9v0.5h4.9V144.1L156.4,144.1z M166.2,144.1h-4.9v0.5h4.9V144.1L166.2,144.1z M176.1,144.1
		h-4.9v0.5h4.9V144.1L176.1,144.1z M185.9,144.1H181v0.5h4.9V144.1L185.9,144.1z M195.8,144.1h-4.9v0.5h4.9V144.1L195.8,144.1z
		 M205.6,144.1h-4.9v0.5h4.9V144.1L205.6,144.1z M215.4,144.1h-4.9v0.5h4.9V144.1L215.4,144.1z M225.3,144.1h-4.9v0.5h4.9V144.1
		L225.3,144.1z M235.1,144.1h-4.9v0.5h4.9V144.1L235.1,144.1z M245,144.1h-4.9v0.5h4.9V144.1L245,144.1z M254.8,144.1h-4.9v0.5h4.9
		V144.1L254.8,144.1z M264.7,144.1h-4.9v0.5h4.9V144.1L264.7,144.1z M274.5,144.1h-4.9v0.5h4.9V144.1L274.5,144.1z M284.3,144.1
		h-4.9v0.5h4.9V144.1L284.3,144.1z M294.2,144.1h-4.9v0.5h4.9V144.1L294.2,144.1z M304,144.1h-4.9v0.5h4.9V144.1L304,144.1z
		 M313.9,144.1H309v0.5h4.9V144.1L313.9,144.1z M323.7,144.1h-4.9v0.5h4.9V144.1L323.7,144.1z M333.6,144.1h-4.9v0.5h4.9V144.1
		L333.6,144.1z M343.4,144.1h-4.9v0.5h4.9V144.1L343.4,144.1z M353.2,144.1h-4.9v0.5h4.9V144.1L353.2,144.1z M363.1,144.1h-4.9v0.5
		h4.9V144.1L363.1,144.1z M372.9,144.1H368v0.5h4.9V144.1L372.9,144.1z M382.8,144.1h-4.9v0.5h4.9V144.1L382.8,144.1z M392.6,144.1
		h-4.9v0.5h4.9V144.1L392.6,144.1z M402.5,144.1h-4.9v0.5h4.9V144.1L402.5,144.1z M412.3,144.1h-4.9v0.5h4.9V144.1L412.3,144.1z
		 M422.1,144.1h-4.9v0.5h4.9V144.1L422.1,144.1z M432,144.1h-4.9v0.5h4.9V144.1L432,144.1z M441.8,144.1h-4.9v0.5h4.9V144.1
		L441.8,144.1z M451.7,144.1h-4.9v0.5h4.9V144.1L451.7,144.1z M461.5,144.1h-4.9v0.5h4.9V144.1L461.5,144.1z M471.4,144.1h-4.9v0.5
		h4.9V144.1L471.4,144.1z M481.2,144.1h-4.9v0.5h4.9V144.1L481.2,144.1z M491,144.1h-4.9v0.5h4.9V144.1L491,144.1z M491.8,135.5
		h-0.5v4.9h0.5V135.5L491.8,135.5z M491.8,125.6h-0.5v4.9h0.5V125.6L491.8,125.6z M491.8,115.8h-0.5v4.9h0.5V115.8L491.8,115.8z
		 M491.8,106h-0.5v4.9h0.5V106L491.8,106z M491.8,96.1h-0.5v4.9h0.5V96.1L491.8,96.1z M491.8,86.3h-0.5v4.9h0.5V86.3L491.8,86.3z
		 M491.8,76.4h-0.5v4.9h0.5V76.4L491.8,76.4z M491.8,66.6h-0.5v4.9h0.5V66.6L491.8,66.6z M491.8,56.7h-0.5v4.9h0.5V56.7L491.8,56.7z
		 M491.8,46.9h-0.5v4.9h0.5V46.9L491.8,46.9z M491.8,37.1h-0.5V42h0.5V37.1L491.8,37.1z M491.8,27.2h-0.5v4.9h0.5V27.2L491.8,27.2z
		 M491.8,17.4h-0.5v4.9h0.5V17.4L491.8,17.4z M491.8,7.5h-0.5v4.9h0.5V7.5L491.8,7.5z M491.8-2.3h-0.5v4.9h0.5V-2.3L491.8-2.3z
		 M491.8-12.2h-0.5v4.9h0.5V-12.2L491.8-12.2z M491.8-22h-0.5v4.9h0.5V-22L491.8-22z M491.8-31.8h-0.5v4.9h0.5V-31.8L491.8-31.8z
		 M491.8-41.7h-0.5v4.9h0.5V-41.7L491.8-41.7z"/>
</g>
<line class="st2" x1="491.8" y1="0" x2="-42.5" y2="0"/>
<line class="st2" x1="491.8" y1="85" x2="-42.5" y2="85"/>
<line class="st2" x1="491.8" y1="101.3" x2="-42.5" y2="101.3"/>
<line class="st2" x1="0" y1="144.6" x2="0" y2="-42.5"/>
<line class="st2" x1="80.3" y1="144.6" x2="80.3" y2="-42.5"/>
<line class="st2" x1="94.5" y1="144.6" x2="94.5" y2="-42.5"/>
<line class="st2" x1="449.3" y1="144.6" x2="449.3" y2="-42.5"/>
<path class="st3" d="M77.9,31.5l-0.4-1.1L76.4,30c-1.7-0.6-3.5-1.1-5.2-1.5C69.9,12.6,56.4,0,40.1,0c-16.3,0-29.7,12.6-31,28.6
	c-1.8,0.4-3.5,0.8-5.2,1.5l-1.1,0.4l-0.4,1.1c-5.2,14.8-1.7,30.8,9.3,41.9c3.9,3.9,8.5,6.9,13.9,8.9l0,0l1.1,0.4
	c4.3,1.5,8.8,2.3,13.4,2.3c1.7,0,3.4-0.1,5.1-0.3c2.8-0.4,5.6-1,8.3-2l1.1-0.4l0,0c5.3-2,10-5,13.9-8.9
	C79.6,62.4,83.2,46.4,77.9,31.5z M50.8,78.4c-0.3,0.1-0.6,0.2-0.8,0.3c-0.4,0.1-0.9,0.2-1.3,0.4c-0.5,0.1-1,0.2-1.5,0.3
	c-0.4,0.1-0.9,0.2-1.3,0.2c-0.5,0.1-1,0.1-1.5,0.2c-0.4,0.1-0.9,0.1-1.3,0.1c-0.5,0-1,0.1-1.5,0.1c-0.5,0-0.9,0-1.4,0s-0.9,0-1.4,0
	c-0.5,0-1,0-1.5-0.1c-0.4,0-0.9-0.1-1.3-0.1c-0.5-0.1-1-0.1-1.5-0.2c-0.4-0.1-0.9-0.2-1.3-0.2c-0.5-0.1-1-0.2-1.5-0.3
	c-0.4-0.1-0.9-0.2-1.3-0.4c-0.3-0.1-0.6-0.2-0.8-0.3c-1.9-6.1-2.2-12.4-0.9-18.3c3.5,1.4,7.4,2.2,11.4,2.2c4,0,7.9-0.8,11.5-2.2
	C52.9,66,52.7,72.3,50.8,78.4z M40.1,57.3c-3.5,0-6.9-0.7-10-2c1.7-4.5,4.4-8.7,8-12.3c0.6-0.6,1.3-1.2,2-1.7c0.7,0.6,1.4,1.1,2,1.7
	c3.6,3.6,6.3,7.8,8,12.3C47.1,56.5,43.7,57.3,40.1,57.3z M25.7,52.9c-6.6-4.4-11-11.7-11.6-20c1-0.1,2.1-0.2,3.2-0.2
	c6.7,0,13.1,1.9,18.7,5.4c-0.5,0.4-0.9,0.8-1.4,1.2C30.6,43.3,27.7,47.9,25.7,52.9z M45.7,39.4c-0.4-0.4-0.9-0.8-1.4-1.2
	c5.6-3.5,12-5.4,18.7-5.4c1.1,0,2.1,0.1,3.1,0.2c-0.6,8.3-5,15.6-11.6,20C52.7,47.9,49.7,43.3,45.7,39.4z M40.1,5
	c13.3,0,24.3,10,25.9,22.8c-1-0.1-2-0.1-3-0.1c-8.3,0-16.1,2.5-22.9,7.2c-6.8-4.7-14.6-7.2-22.9-7.2c-1,0-2,0-3,0.1
	C15.9,15,26.9,5,40.1,5z M6.7,34.4c0.8-0.3,1.6-0.5,2.4-0.7c0.8,10.2,6.6,19.1,15,24.1c-1.5,5.9-1.6,12.1-0.3,18.2
	c-3.2-1.6-6-3.7-8.5-6.2C5.9,60.5,2.7,47,6.7,34.4z M56.6,76c1.3-6.1,1.2-12.3-0.3-18.2c8.3-5,14.1-13.9,14.9-24.1
	c0.8,0.2,1.6,0.4,2.4,0.7c4,12.6,0.8,26.1-8.6,35.5C62.6,72.3,59.7,74.4,56.6,76z"/>
<path class="st3" d="M113.8,17.4h10.8l18.9,50.2H133l-4.1-12h-19.4l-4.1,12H95L113.8,17.4z M125.8,46.9l-4.5-12.6l-1.8-6.1h-0.6
	l-1.8,6.1l-4.5,12.6H125.8z"/>
<path class="st3" d="M160.5,83.9c-2.4,0-4.6-0.3-6.5-0.9c-1.9-0.6-3.5-1.4-4.9-2.5c-1.4-1-2.6-2.1-3.5-3.3c-0.9-1.2-1.6-2.4-2-3.6
	l8.8-3.5c0.7,1.8,1.7,3.2,3.2,4.2c1.5,1,3.2,1.5,5,1.5c2.9,0,5.2-0.9,6.9-2.8c1.7-1.9,2.5-4.5,2.5-7.8v-2.4h-0.6
	c-1.1,1.5-2.5,2.7-4.2,3.5c-1.8,0.9-3.8,1.3-6.2,1.3c-2.1,0-4.1-0.4-6-1.2c-1.9-0.8-3.7-2-5.2-3.6c-1.5-1.6-2.7-3.4-3.6-5.6
	c-0.9-2.2-1.4-4.6-1.4-7.3c0-2.7,0.5-5.1,1.4-7.3c0.9-2.2,2.1-4.1,3.6-5.6c1.5-1.6,3.2-2.7,5.2-3.6c1.9-0.8,3.9-1.3,6-1.3
	c2.4,0,4.5,0.4,6.2,1.3c1.8,0.9,3.2,2,4.2,3.5h0.6v-3.7h8.8v31.9c0,2.9-0.4,5.5-1.3,7.8c-0.9,2.3-2.1,4.3-3.7,5.9
	c-1.6,1.6-3.5,2.9-5.7,3.7C165.7,83.5,163.2,83.9,160.5,83.9z M160.8,59.4c1.1,0,2.2-0.2,3.3-0.6c1.1-0.4,2.1-1,2.9-1.8
	c0.8-0.8,1.5-1.8,2-3c0.5-1.2,0.8-2.5,0.8-4c0-1.5-0.3-2.9-0.8-4.1c-0.5-1.2-1.2-2.2-2-3c-0.8-0.8-1.8-1.4-2.9-1.8
	c-1.1-0.4-2.2-0.6-3.3-0.6s-2.2,0.2-3.3,0.6c-1.1,0.4-2,1-2.9,1.9c-0.8,0.8-1.5,1.8-2,3c-0.5,1.2-0.8,2.5-0.8,4c0,1.5,0.3,2.9,0.8,4
	c0.5,1.2,1.2,2.2,2,3c0.8,0.8,1.8,1.4,2.9,1.8C158.6,59.1,159.7,59.4,160.8,59.4z"/>
<path class="st3" d="M182.3,33.3h8.6V38h0.6c0.4-0.8,1-1.6,1.7-2.3c0.7-0.7,1.5-1.3,2.3-1.8c0.9-0.5,1.8-0.9,2.8-1.3
	c1-0.3,2-0.5,3-0.5c1.2,0,2.3,0.1,3.1,0.4c0.9,0.3,1.6,0.6,2.2,1l-2.5,8.2c-0.6-0.3-1.2-0.5-1.9-0.7c-0.7-0.2-1.5-0.2-2.5-0.2
	c-1.3,0-2.4,0.3-3.4,0.7c-1,0.5-1.9,1.2-2.6,2.1c-0.7,0.9-1.3,1.9-1.7,3.1c-0.4,1.2-0.6,2.5-0.6,3.9v16.9h-9.2L182.3,33.3
	L182.3,33.3z"/>
<path class="st3" d="M210,67.6V33.3h9.2v34.4C219.2,67.6,210,67.6,210,67.6z"/>
<path class="st3" d="M225.4,17.4h31.8v9h-22.4v12.2H255v9h-20.1v20.1h-9.5L225.4,17.4L225.4,17.4z"/>
<path class="st3" d="M283,63.1h-0.6c-1.1,1.7-2.5,3.1-4.4,4.1c-1.8,1-3.9,1.5-6.2,1.5c-4.3,0-7.6-1.3-9.7-4
	c-2.1-2.7-3.2-6.2-3.2-10.7V33.3h9.2V53c0,2.5,0.5,4.3,1.6,5.5c1.1,1.2,2.7,1.8,4.8,1.8c1.3,0,2.4-0.3,3.3-0.8
	c1-0.5,1.8-1.3,2.5-2.2c0.7-0.9,1.2-2,1.5-3.2c0.4-1.2,0.5-2.6,0.5-4V33.3h9.2v34.4H283L283,63.1L283,63.1z"/>
<path class="st3" d="M300.5,41.1h-6v-7.9h6V22.7h9.2v10.5h8.4v7.9h-8.4v13.7c0,0.8,0.1,1.6,0.2,2.3c0.2,0.7,0.5,1.3,0.9,1.8
	c0.7,0.8,1.6,1.2,2.8,1.2c0.8,0,1.4-0.1,1.9-0.2c0.5-0.2,0.9-0.4,1.3-0.7l2.6,8.1c-1.1,0.5-2.2,0.9-3.5,1.2
	c-1.2,0.3-2.6,0.4-4.1,0.4c-1.7,0-3.3-0.3-4.7-0.8c-1.4-0.5-2.5-1.3-3.5-2.3c-2.2-2.2-3.3-5.2-3.3-9.2L300.5,41.1L300.5,41.1z"/>
<path class="st3" d="M346.9,63.1h-0.6c-1.1,1.7-2.5,3.1-4.4,4.1c-1.8,1-3.9,1.5-6.2,1.5c-4.3,0-7.6-1.3-9.7-4
	c-2.1-2.7-3.2-6.2-3.2-10.7V33.3h9.2V53c0,2.5,0.6,4.3,1.6,5.5c1.1,1.2,2.7,1.8,4.8,1.8c1.3,0,2.4-0.3,3.3-0.8
	c1-0.5,1.8-1.3,2.5-2.2c0.7-0.9,1.2-2,1.5-3.2c0.4-1.2,0.5-2.6,0.5-4V33.3h9.2v34.4h-8.6L346.9,63.1L346.9,63.1z"/>
<path class="st3" d="M359.1,33.3h8.6V38h0.6c0.4-0.8,1-1.6,1.7-2.3c0.7-0.7,1.5-1.3,2.4-1.8c0.9-0.5,1.8-0.9,2.8-1.3
	c1-0.3,2-0.5,3-0.5c1.2,0,2.3,0.1,3.1,0.4c0.9,0.3,1.6,0.6,2.2,1l-2.5,8.2c-0.6-0.3-1.2-0.5-1.9-0.7c-0.7-0.2-1.5-0.2-2.5-0.2
	c-1.3,0-2.4,0.3-3.4,0.7c-1,0.5-1.9,1.2-2.6,2.1c-0.7,0.9-1.3,1.9-1.7,3.1c-0.4,1.2-0.6,2.5-0.6,3.9v16.9h-9.2L359.1,33.3
	L359.1,33.3z"/>
<path class="st3" d="M416,59.4c-1.6,2.8-3.7,5.1-6.4,6.8c-2.7,1.7-6,2.6-9.9,2.6c-2.6,0-5-0.5-7.3-1.4c-2.2-0.9-4.1-2.2-5.8-3.8
	c-1.6-1.6-2.9-3.6-3.8-5.8c-0.9-2.2-1.4-4.7-1.4-7.3c0-2.5,0.4-4.8,1.3-7c0.9-2.2,2.1-4.2,3.7-5.8c1.6-1.7,3.5-3,5.6-4
	c2.2-1,4.6-1.5,7.2-1.5c2.8,0,5.2,0.5,7.4,1.4c2.2,0.9,3.9,2.2,5.4,3.8c1.5,1.6,2.5,3.5,3.3,5.7c0.7,2.2,1.1,4.6,1.1,7.2
	c0,0.3,0,0.6,0,0.8c0,0.3-0.1,0.5-0.1,0.8c0,0.2-0.1,0.5-0.1,0.8h-25.9c0.2,1.4,0.6,2.6,1.2,3.6c0.6,1,1.3,1.8,2.2,2.5
	c0.9,0.7,1.8,1.2,2.8,1.5c1,0.3,2.1,0.5,3.2,0.5c2.1,0,3.8-0.5,5.2-1.4c1.4-1,2.5-2.2,3.3-3.6L416,59.4z M407.6,46
	c0-0.6-0.2-1.3-0.6-2c-0.3-0.7-0.9-1.4-1.5-2.1c-0.7-0.7-1.5-1.2-2.5-1.6c-1-0.4-2.2-0.6-3.6-0.6c-2,0-3.7,0.6-5.2,1.7
	c-1.5,1.1-2.6,2.7-3.2,4.7L407.6,46L407.6,46z"/>
<path class="st3" d="M434.6,68.8c-2.2,0-4.2-0.3-6-0.8c-1.8-0.6-3.3-1.3-4.6-2.2c-1.3-0.9-2.4-2-3.3-3.2c-0.9-1.2-1.6-2.4-2-3.6
	l8.2-3.5c0.8,1.8,1.9,3.1,3.2,4c1.3,0.9,2.8,1.3,4.5,1.3c1.7,0,3-0.3,4-0.9c1-0.6,1.5-1.3,1.5-2.2c0-0.9-0.4-1.7-1.2-2.3
	c-0.8-0.6-2.2-1.1-4.2-1.6l-4.8-1.1c-1.1-0.2-2.2-0.6-3.3-1.1c-1.1-0.5-2.2-1.2-3.1-2c-0.9-0.8-1.7-1.8-2.3-2.9
	c-0.6-1.1-0.9-2.4-0.9-3.9c0-1.7,0.4-3.2,1.1-4.5c0.7-1.3,1.7-2.4,3-3.3c1.3-0.9,2.7-1.6,4.5-2.1c1.7-0.5,3.5-0.7,5.5-0.7
	c3.3,0,6.2,0.6,8.8,1.9c2.6,1.3,4.5,3.3,5.7,6.1l-7.9,3.2c-0.7-1.4-1.6-2.3-2.9-2.9c-1.3-0.6-2.5-0.9-3.8-0.9
	c-1.3,0-2.5,0.3-3.4,0.8c-1,0.5-1.5,1.2-1.5,2.1c0,0.8,0.4,1.4,1.2,1.9c0.8,0.5,1.9,0.9,3.3,1.3l5.3,1.3c3.5,0.8,6.1,2.2,7.8,4
	c1.7,1.8,2.6,4,2.6,6.6c0,1.5-0.4,2.9-1.1,4.3c-0.7,1.4-1.7,2.6-3,3.6c-1.3,1.1-2.8,1.9-4.6,2.5C438.8,68.4,436.8,68.8,434.6,68.8z"
	/>
<circle class="st3" cx="214.6" cy="22.7" r="6"/>
</svg>
