<?xml version="1.0" encoding="utf-8"?>
<!-- Generator: Adobe Illustrator 24.1.2, SVG Export Plug-In . SVG Version: 6.00 Build 0)  -->
<svg version="1.1" id="Layer_1" xmlns="http://www.w3.org/2000/svg" xmlns:xlink="http://www.w3.org/1999/xlink" x="0px" y="0px"
	 viewBox="0 0 365.7 75.4" style="enable-background:new 0 0 365.7 75.4;" xml:space="preserve">
<style type="text/css">
	.st0{fill:#AFBCCC;}
</style>
<g>
	<path class="st0" d="M266.5,42.6c0.9-2.9,2.4-5.2,4.6-6.8s4.7-2.4,7.5-2.4c2,0,3.8,0.3,5.2,0.9s2.7,1.4,3.6,2.3c1,0.9,1.7,2,2.2,3
		c0.5,1.1,0.8,2.1,0.9,2.9L266.5,42.6L266.5,42.6z M291.6,56.3c-1.1,2.1-2.7,3.8-4.7,5.2s-4.5,2.1-7.6,2.1c-1.6,0-3.1-0.2-4.6-0.7
		c-1.5-0.4-2.9-1.1-4.1-2.1c-1.3-1-2.3-2.2-3.1-3.6c-0.8-1.5-1.4-3.2-1.7-5.2h37.4c0-0.4,0-0.8,0.1-1.1c0-0.3,0-0.7,0.1-1.1v-1.2
		c0-3.7-0.5-7.2-1.6-10.3c-1.1-3.2-2.7-5.9-4.8-8.3c-2.1-2.3-4.7-4.2-7.8-5.5c-3.1-1.3-6.7-2-10.6-2c-3.8,0-7.2,0.7-10.4,2.1
		c-3.1,1.4-5.9,3.3-8.2,5.7c-2.3,2.4-4.1,5.2-5.4,8.4c-1.3,3.2-1.9,6.6-1.9,10.2c0,3.9,0.7,7.4,2,10.6s3.2,6,5.5,8.4
		c2.4,2.4,5.2,4.2,8.4,5.5c3.2,1.3,6.7,2,10.5,2c5.6,0,10.4-1.3,14.2-3.7c3.9-2.5,7-5.8,9.3-9.8L291.6,56.3z M195.3,73.8h13.3v-16
		l5.9-5.8L228,73.8h15.7V73l-20-30.1L242.1,25v-0.8h-16.4l-16.6,16.6h-0.6V1.2h-13.3v72.6H195.3z M147.9,62.2
		c-1.6-0.6-2.9-1.6-4.2-2.8c-1.2-1.2-2.2-2.7-2.9-4.5s-1.1-3.7-1.1-6c0-2.2,0.4-4.2,1.1-6c0.7-1.8,1.7-3.2,2.9-4.5
		c1.2-1.2,2.6-2.1,4.2-2.8c1.6-0.6,3.2-1,5-1c1.7,0,3.3,0.3,4.9,1c1.6,0.6,3,1.6,4.2,2.8s2.2,2.7,2.9,4.5s1.1,3.7,1.1,6
		c0,2.2-0.4,4.2-1.1,6c-0.7,1.8-1.7,3.2-2.9,4.5c-1.2,1.2-2.6,2.1-4.2,2.8c-1.6,0.6-3.2,1-4.9,1C151.1,63.1,149.4,62.8,147.9,62.2
		 M142.2,24.5c-3.2,1.3-6,3.1-8.3,5.5s-4.2,5.1-5.5,8.4c-1.3,3.2-2,6.8-2,10.6s0.7,7.4,2,10.6c1.3,3.2,3.1,6,5.5,8.4
		s5.1,4.2,8.3,5.5s6.7,2,10.6,2c3.9,0,7.4-0.7,10.6-2c3.2-1.3,6-3.1,8.3-5.5s4.2-5.1,5.5-8.4c1.3-3.2,2-6.8,2-10.6s-0.7-7.4-2-10.6
		c-1.3-3.2-3.1-6-5.5-8.4s-5.1-4.2-8.3-5.5c-3.2-1.3-6.7-2-10.6-2C149,22.5,145.5,23.2,142.2,24.5 M82.2,73.8h13.1l21.4-49.7h-15
		L89.2,55.7h-0.7L76.1,24.1H61L82.2,73.8z M13.8,42.6c0.9-2.9,2.4-5.2,4.6-6.8s4.7-2.4,7.5-2.4c2,0,3.8,0.3,5.2,0.9
		c1.5,0.6,2.7,1.4,3.6,2.3c1,0.9,1.7,2,2.2,3c0.5,1.1,0.8,2.1,0.9,2.9L13.8,42.6L13.8,42.6z M38.8,56.3c-1.2,2.1-2.7,3.8-4.7,5.2
		s-4.5,2.1-7.6,2.1c-1.6,0-3.1-0.2-4.6-0.7c-1.5-0.4-2.9-1.1-4.1-2.1c-1.3-1-2.3-2.2-3.1-3.6C13.9,55.7,13.3,54,13,52h37.4
		c0-0.4,0-0.8,0.1-1.1c0-0.3,0-0.7,0.1-1.1v-1.2c0-3.7-0.5-7.2-1.6-10.3c-1.1-3.2-2.7-5.9-4.8-8.3c-2.1-2.3-4.7-4.2-7.8-5.5
		s-6.7-2-10.6-2c-3.8,0-7.2,0.7-10.4,2.1C12.3,26,9.6,28,7.3,30.4s-4.1,5.2-5.4,8.4S0,45.4,0,48.9c0,3.9,0.7,7.4,2,10.6
		c1.3,3.2,3.2,6,5.5,8.4c2.4,2.4,5.2,4.2,8.4,5.5s6.7,2,10.5,2c5.6,0,10.4-1.3,14.2-3.7c3.9-2.5,7-5.8,9.3-9.8L38.8,56.3z"/>
	<g>
		<g>
			<polygon class="st0" points="101.2,1.2 102.2,1.2 102.2,4.1 103.1,4.1 103.1,1.2 104,1.2 104,0.4 101.2,0.4 			"/>
			<polygon class="st0" points="107.7,0.4 106.6,2.2 105.6,0.4 104.8,0.4 104.8,4.1 105.7,4.1 105.7,2.2 105.6,2 106.4,3.3 
				106.4,3.3 106.9,3.3 107.6,2 107.6,2.3 107.6,4.1 108.5,4.1 108.5,0.4 			"/>
		</g>
		<g>
			<g>
				<path class="st0" d="M12,0.2H9L3.6,14.3h2.9L7.7,11h5.4l1.2,3.3h2.9L12,0.2z M8.6,8.5l1.2-3.6l0.5-1.7h0.2L11,4.9l1.2,3.6H8.6z"
					/>
				<path class="st0" d="M24.7,5.7h-0.2c-0.3-0.4-0.7-0.8-1.2-1s-1.1-0.3-1.7-0.3s-1.1,0.1-1.7,0.3c-0.5,0.3-1,0.6-1.5,1
					c-0.4,0.4-0.8,1-1,1.6c-0.3,0.5-0.4,1.2-0.4,2s0.1,1.5,0.4,2.1c0.3,0.6,0.6,1.1,1,1.6c0.4,0.4,0.9,0.8,1.5,1
					c0.5,0.3,1.1,0.4,1.7,0.4s1.2-0.1,1.7-0.4c0.5-0.2,0.9-0.5,1.2-1h0.2v0.6c0,0.9-0.2,1.7-0.7,2.2c-0.5,0.5-1.1,0.8-1.9,0.8
					c-0.5,0-1-0.1-1.4-0.4c-0.4-0.3-0.7-0.6-0.9-1.2l-2.5,1c0.1,0.4,0.3,0.7,0.6,1c0.3,0.4,0.6,0.6,1,1c0.4,0.3,0.9,0.5,1.4,0.6
					c0.5,0.2,1.1,0.3,1.8,0.3c0.8,0,1.5-0.1,2.1-0.3c0.6-0.3,1.1-0.6,1.6-1.1c0.5-0.4,0.8-1,1.1-1.6c0.2-0.6,0.3-1.4,0.3-2.2V4.6
					h-2.4v1.1H24.7z M24.4,10.4c-0.2,0.3-0.3,0.6-0.6,0.8c-0.2,0.2-0.5,0.4-0.8,0.5s-0.6,0.2-0.9,0.2s-0.6-0.1-0.9-0.2
					c-0.3-0.1-0.6-0.3-0.8-0.5c-0.2-0.2-0.4-0.5-0.6-0.8c-0.1-0.3-0.2-0.7-0.2-1.1s0.1-0.8,0.2-1.1c0.2-0.3,0.4-0.6,0.6-0.8
					c0.2-0.3,0.5-0.4,0.8-0.5s0.6-0.2,0.9-0.2s0.6,0.1,0.9,0.2s0.6,0.3,0.8,0.5c0.3,0.3,0.4,0.5,0.6,0.9s0.2,0.7,0.2,1.1
					S24.6,10.1,24.4,10.4z"/>
				<path class="st0" d="M33.5,4.3c-0.3,0-0.5,0.1-0.8,0.1c-0.3,0.1-0.6,0.2-0.8,0.4c-0.2,0.1-0.5,0.3-0.6,0.5
					c-0.2,0.2-0.4,0.4-0.5,0.6h-0.2V4.6h-2.4v9.6h2.6V9.5c0-0.4,0.1-0.8,0.2-1.1s0.3-0.6,0.5-0.9s0.4-0.5,0.8-0.6
					c0.3-0.2,0.6-0.2,0.9-0.2c0.3,0,0.5,0,0.7,0.1s0.4,0.1,0.5,0.2L35,4.7c-0.2-0.1-0.4-0.2-0.6-0.3C34.1,4.3,33.8,4.3,33.5,4.3z"/>
				<rect x="35.9" y="4.6" class="st0" width="2.6" height="9.6"/>
				<circle class="st0" cx="37.2" cy="1.7" r="1.7"/>
				<polygon class="st0" points="40.2,14.3 42.9,14.3 42.9,8.6 48.5,8.6 48.5,6.1 42.9,6.1 42.9,2.7 49.1,2.7 49.1,0.2 40.2,0.2 
									"/>
				<path class="st0" d="M56.2,9.3c0,0.4-0.1,0.8-0.2,1.1c-0.1,0.4-0.2,0.6-0.4,0.9c-0.2,0.3-0.4,0.5-0.6,0.6
					c-0.3,0.1-0.6,0.2-1,0.2c-0.6,0-1-0.2-1.4-0.5c-0.3-0.3-0.4-0.8-0.4-1.5V4.6h-2.6v5.8c0,1.2,0.3,2.2,0.9,3
					c0.6,0.8,1.5,1.1,2.7,1.1c0.6,0,1.2-0.2,1.8-0.4c0.5-0.3,0.9-0.6,1.2-1.1h0.2v1.2h2.4V4.6h-2.6C56.2,4.6,56.2,9.3,56.2,9.3z"/>
				<path class="st0" d="M65.5,12c-0.2,0.1-0.3,0.1-0.5,0.1c-0.3,0-0.6-0.1-0.8-0.3c-0.2-0.2-0.3-0.3-0.3-0.5
					c-0.1-0.2-0.1-0.4-0.1-0.6V6.8h2.4V4.6h-2.4v-3h-2.5v3h-1.7v2.2h1.7v4.3c0,1.1,0.3,2,0.9,2.6c0.3,0.3,0.6,0.5,1,0.6
					c0.4,0.2,0.8,0.3,1.3,0.3c0.4,0,0.8-0.1,1.1-0.1c0.4-0.1,0.7-0.2,1-0.3l-0.7-2.3C65.8,11.9,65.6,12,65.5,12z"/>
				<path class="st0" d="M74.1,9.3c0,0.4,0,0.8-0.1,1.1c-0.1,0.4-0.3,0.6-0.4,0.9c-0.2,0.3-0.4,0.5-0.7,0.6
					c-0.3,0.1-0.6,0.2-0.9,0.2c-0.6,0-1.1-0.2-1.4-0.5s-0.5-0.8-0.5-1.5V4.6h-2.6v5.8c0,1.2,0.3,2.2,0.9,3s1.5,1.1,2.7,1.1
					c0.7,0,1.2-0.2,1.8-0.4c0.5-0.3,0.9-0.6,1.2-1.1h0.2v1.2h2.4V4.6h-2.6V9.3z"/>
				<path class="st0" d="M83.9,4.4c-0.3-0.1-0.5-0.1-0.9-0.1c-0.3,0-0.6,0.1-0.9,0.1c-0.3,0.1-0.5,0.2-0.8,0.4
					c-0.3,0.1-0.5,0.3-0.7,0.5s-0.3,0.4-0.4,0.6H80V4.6h-2.4v9.6h2.6V9.5c0-0.4,0.1-0.8,0.2-1.1s0.3-0.6,0.5-0.9s0.4-0.5,0.7-0.6
					c0.3-0.2,0.6-0.2,1-0.2c0.3,0,0.5,0,0.7,0.1s0.4,0.1,0.5,0.2l0.6-2.3C84.3,4.6,84.1,4.5,83.9,4.4z"/>
				<path class="st0" d="M92.6,5.7c-0.4-0.4-0.9-0.8-1.5-1c-0.6-0.3-1.3-0.4-2.1-0.4s-1.4,0.1-2.1,0.4c-0.6,0.3-1.1,0.6-1.6,1.1
					c-0.4,0.5-0.8,1-1,1.6c-0.3,0.6-0.4,1.3-0.4,2c0,0.8,0.1,1.4,0.4,2.1c0.3,0.6,0.6,1.1,1.1,1.6c0.4,0.4,1,0.8,1.6,1.1
					c0.6,0.2,1.3,0.4,2.1,0.4c1.1,0,2-0.3,2.8-0.8s1.4-1.1,1.8-1.9l-2.2-1.1c-0.2,0.4-0.5,0.8-0.9,1c-0.4,0.3-0.9,0.4-1.5,0.4
					c-0.3,0-0.6-0.1-0.9-0.2c-0.3-0.1-0.5-0.2-0.8-0.4c-0.2-0.2-0.4-0.4-0.6-0.8c-0.2-0.3-0.3-0.6-0.3-1h7.2c0-0.1,0-0.2,0.1-0.2
					c0-0.1,0-0.2,0-0.2V9.3c0-0.7-0.1-1.4-0.3-2C93.3,6.8,93,6.2,92.6,5.7z M86.6,8.2c0.2-0.6,0.5-1,0.9-1.4c0.5-0.2,1-0.4,1.5-0.4
					c0.4,0,0.7,0.1,1,0.2s0.5,0.3,0.7,0.4c0.2,0.2,0.3,0.4,0.4,0.6s0.1,0.4,0.2,0.6H86.6z"/>
				<path class="st0" d="M102.3,9.6c-0.5-0.5-1.2-0.9-2.2-1.1l-1.5-0.3c-0.4-0.1-0.7-0.3-1-0.4c-0.2-0.1-0.3-0.3-0.3-0.5
					s0.2-0.4,0.4-0.5c0.3-0.2,0.6-0.3,1-0.3c0.3,0,0.7,0.1,1,0.3c0.4,0.2,0.6,0.4,0.8,0.8l2.2-0.9c-0.3-0.8-0.9-1.4-1.6-1.7
					c-0.8-0.4-1.6-0.5-2.5-0.5c-0.5,0-1,0.1-1.5,0.2S96.2,5,95.9,5.2c-0.4,0.3-0.6,0.6-0.9,1c-0.2,0.4-0.3,0.8-0.3,1.2
					c0,0.4,0.1,0.8,0.2,1.1c0.2,0.3,0.4,0.6,0.6,0.8c0.3,0.3,0.6,0.4,0.9,0.6c0.3,0.1,0.6,0.2,1,0.3l1.4,0.3c0.5,0.1,1,0.3,1.2,0.4
					c0.2,0.2,0.3,0.4,0.3,0.6c0,0.2-0.1,0.4-0.4,0.6c-0.3,0.2-0.6,0.3-1.1,0.3s-0.9-0.1-1.2-0.4c-0.4-0.2-0.7-0.6-0.9-1.1l-2.3,1
					c0.1,0.3,0.3,0.6,0.5,1c0.3,0.3,0.5,0.6,0.9,0.9c0.4,0.3,0.8,0.4,1.3,0.6c0.5,0.2,1,0.3,1.7,0.3c0.6,0,1.2-0.1,1.7-0.3
					s0.9-0.4,1.3-0.7s0.6-0.6,0.8-1c0.2-0.4,0.3-0.8,0.3-1.2C103,10.7,102.8,10.1,102.3,9.6z"/>
			</g>
		</g>
	</g>
	<g>
		<rect x="356.9" y="18.7" class="st0" width="5.4" height="5.2"/>
		<g>
			<path class="st0" d="M321.1,0.8h-5.8l-8.9,23.7h6.2l1.8-5.3h7.6l1.8,5.3h6.2L321.2,1L321.1,0.8z M318.2,8.5l0.3,0.9l1.7,4.6h-3.8
				l1.7-4.7L318.2,8.5z"/>
			<path class="st0" d="M354.3,12.4c0-0.4-0.1-0.7-0.2-1l-0.1-0.5h-12.2v5h6.8c-0.1,0.3-0.2,0.6-0.4,0.9c-0.3,0.5-0.6,0.9-0.9,1.2
				c-0.5,0.5-1.2,0.9-1.9,1.2c-0.7,0.3-1.6,0.5-2.7,0.5c-0.9,0-1.8-0.2-2.7-0.5c-0.8-0.3-1.6-0.8-2.2-1.4s-1.1-1.3-1.5-2.2
				c-0.4-0.9-0.5-1.8-0.5-2.9s0.2-2,0.5-2.9c0.4-0.9,0.9-1.6,1.5-2.2s1.3-1.1,2.2-1.4c0.8-0.3,1.7-0.5,2.6-0.5
				c1.1,0,2.1,0.2,2.9,0.5c0.8,0.4,1.5,0.9,2.2,1.6l0.5,0.5l3.9-3.8L351.6,4c-1.1-1.2-2.4-2.1-3.9-2.8s-3.2-1-5.1-1
				c-1.7,0-3.3,0.3-4.8,0.9s-2.8,1.5-4,2.6c-1.1,1.1-2,2.4-2.7,3.9s-1,3.2-1,4.9c0,1.8,0.3,3.4,1,4.9s1.6,2.8,2.7,3.9s2.5,2,4,2.6
				s3.1,0.9,4.8,0.9c1.9,0,3.6-0.3,5-0.9c1.5-0.6,2.8-1.5,3.8-2.6s1.7-2.3,2.2-3.7c0.5-1.3,0.7-2.8,0.7-4.3
				C354.4,13.2,354.3,12.8,354.3,12.4z"/>
		</g>
	</g>
</g>
</svg>
