<?xml version="1.0" encoding="utf-8"?>
<!-- Generator: Adobe Illustrator 24.1.2, SVG Export Plug-In . SVG Version: 6.00 Build 0)  -->
<svg version="1.1" id="Layer_1" xmlns="http://www.w3.org/2000/svg" xmlns:xlink="http://www.w3.org/1999/xlink" x="0px" y="0px"
	 viewBox="0 0 438 84.3" style="enable-background:new 0 0 438 84.3;" xml:space="preserve">
<style type="text/css">
	.st0{fill:#AFBCCC;}
	.st1{fill:none;stroke:#AFBCCC;stroke-width:2;}
</style>
<g>
	<g>
		<path class="st0" d="M34.8,10.9c-0.7-0.2-2.2-0.5-4.2-0.5c-6.3,0-6.1,5-6,8.5h9.9v9.9h-9.9v30.8h-15V28.8h-8v-9.9h8.1
			c-0.2-9.8,0-18.4,16-18.4c4.2,0,7.3,0.3,9,0.5L34.8,10.9L34.8,10.9z"/>
		<path class="st0" d="M65,59.6c-0.3-1.5-0.5-3.3-0.5-5.9c-1.9,2.8-5,6.7-13.4,6.7c-10,0-14.4-5.5-14.4-12.7
			c0-11.2,10.3-15.2,27.9-14.5c0.1-4.4-0.5-8.5-5.1-8.5c-2.8,0-5.5,1.5-5.5,6.2H39.3c0.1-1.9,0.1-5.4,3.2-8.5
			c3.2-3.3,9.5-5.1,16.9-5.1c3.7,0,11.5,0.5,15.8,4.7c2.6,2.5,3.6,6.4,3.6,10.7v19.1c0,2.9,0.1,3.7,0.8,7.8
			C79.6,59.6,65,59.6,65,59.6z M51.7,46.3c0,3,2,5.5,5.6,5.5c1.6,0,4.5-0.7,6-3.9c1.2-2.6,1.2-5.9,1.1-7.7
			C58,40.4,51.7,40.4,51.7,46.3z"/>
	</g>
	<g>
		<path class="st0" d="M85.1,27.4l-0.4-8.7h14.9l0.2,8.5c3.5-9.1,10.9-8.9,14.4-8.8v13.1c-1.8-0.2-2.2-0.2-3.3-0.2
			c-9.4,0-10.7,6.6-10.7,11v17.3H85.1V27.4z"/>
		<path class="st0" d="M118.6,28c0-1-0.3-8.1-0.3-9.3h15.1l0.2,6.8c2.9-5.3,7.7-7.7,13.8-7.7c2.4,0,10.2,0.4,12.9,7.6
			c3.8-6.4,10.2-7.7,14.4-7.7c7.7,0,11.3,4,12.9,6.4c2.2,3.5,2.2,8.5,2.2,13.2v22.4h-15.3V36.5c0-4.2,0-9-6.1-9
			c-2,0-4.3,0.7-5.7,3.4c-0.5,1-0.8,2.3-0.8,5.8v23h-15.3V36.3c0-3.7,0-8.9-6.1-8.9c-5.2,0-6.5,4.3-6.5,8.9v23.3h-15.3L118.6,28
			L118.6,28z"/>
	</g>
	<g>
		<path class="st0" d="M220,17.3c13.3,0,23.6,6.7,23.6,21.2c0,5.9-1.7,12-5.9,16.2c-3.4,3.3-8.5,5.9-16.9,5.9c-9,0-14.9-2.2-18.9-6
			C197.2,50.1,196,44,196,39C196.1,26.4,203.8,17.3,220,17.3z M213.9,48.7c1.8,3.1,4.6,3.3,5.9,3.3c6.7,0,8-7.2,8-12.9
			c0-7.1-1.7-13-7.8-13c-6.8,0-8.1,6.9-8.1,13C212,41.7,212.2,45.7,213.9,48.7z"/>
		<path class="st0" d="M248.4,27.4l-0.4-8.7h15.3l0.2,6.3c1.9-3.1,5.1-7.2,13.6-7.2c15,0,15,11.4,15,17v24.8h-15.3V36.1
			c0-2.8,0-8.6-6.3-8.6c-6.8,0-6.8,7.2-6.8,8.6v23.4h-15.2V27.4H248.4z"/>
		<path class="st0" d="M298.9,0.8h15.3v58.8h-15.3V0.8z"/>
		<path class="st0" d="M321.7,1h15.6v10.9h-15.6V1z M321.9,18.7h15.3v40.9h-15.3V18.7z"/>
		<path class="st0" d="M344.4,27.4l-0.4-8.7h15.3l0.2,6.3c1.9-3.1,5.1-7.2,13.6-7.2c15,0,15,11.4,15,17v24.8h-15.3V36.1
			c0-2.8,0-8.6-6.3-8.6c-6.8,0-6.8,7.2-6.8,8.6v23.4h-15.2V27.4H344.4z"/>
		<path class="st0" d="M406.6,42.2c0,2.2,0,9.9,7.8,9.9c4.1,0,6.6-2.1,7-5.9h14.2c-1.1,10.3-10.7,14.2-21.3,14.2
			c-14.2,0-21.9-7.2-21.9-20.7c0-13.7,6.7-22.6,21.7-22.6c11.4,0,16.7,4.6,19.5,10.4c1.8,3.5,2.3,7.4,2.3,14.6h-29.3L406.6,42.2
			L406.6,42.2z M421.5,33.9c-0.2-2.4-0.7-8.5-7.3-8.5s-7.2,6.6-7.4,8.5H421.5z"/>
	</g>
	<g>
		<path class="st0" d="M142,67v15.3h-2.7l-6-13.3l0,0v13.3h-1.7V67h2.8l6,13.1l0,0V67H142z"/>
		<path class="st0" d="M161.6,67h2.5l5,15.3h-2.2l-1.1-3.6h-5.9l-1.1,3.6h-2L161.6,67z M162.8,68.8L162.8,68.8l-2.4,8.2h4.9
			L162.8,68.8z"/>
	</g>
	<g>
		<path class="st0" d="M190.8,67v1.7h-4v13.6h-2V68.7h-4V67H190.8z"/>
		<path class="st0" d="M207.6,82.3h-2V67h2V82.3z"/>
		<path class="st0" d="M223.9,76.7v-5c0-3.1,1.6-5,4.8-5s4.8,2,4.8,5v5c0,4.2-1.6,5.9-4.8,5.9S223.9,81,223.9,76.7z M231.5,76.8
			v-5.2c0-3.2-2.2-3.3-2.8-3.3s-2.8,0.1-2.8,3.3v5.2c0,3.4,1,4.2,2.8,4.2S231.5,80.2,231.5,76.8z"/>
		<path class="st0" d="M260.1,67v15.3h-2.7l-6-13.3l0,0v13.3h-1.7V67h2.8l6,13.1l0,0V67H260.1z"/>
		<path class="st0" d="M279.7,67h2.5l5,15.3H285l-1.1-3.6H278l-1.1,3.6h-2L279.7,67z M280.9,68.8L280.9,68.8l-2.4,8.2h4.9
			L280.9,68.8z"/>
		<path class="st0" d="M301.8,82.3V67h2v13.6h5.6v1.7C309.4,82.3,301.8,82.3,301.8,82.3z"/>
	</g>
	<path class="st1" d="M0,76.6h123.6 M314.4,76.6H438"/>
</g>
</svg>
