<?xml version="1.0" encoding="utf-8"?>
<!-- Generator: Adobe Illustrator 24.1.2, SVG Export Plug-In . SVG Version: 6.00 Build 0)  -->
<svg version="1.1" id="Layer_1" xmlns="http://www.w3.org/2000/svg" xmlns:xlink="http://www.w3.org/1999/xlink" x="0px" y="0px"
	 viewBox="0 0 316 49" style="enable-background:new 0 0 316 49;" xml:space="preserve">
<style type="text/css">
	.st0{fill-rule:evenodd;clip-rule:evenodd;fill:#AFBCCC;}
</style>
<desc>Created with Sketch.</desc>
<g id="_STYLEGUIDE">
	<g id="SD_Styleguide" transform="translate(-118.000000, -296.000000)">
		<g id="SD_Logo" transform="translate(117.000000, 286.000000)">
			<path id="startup" class="st0" d="M13.9,48.7c-4.7,0-8.6-1-12-3.4l2.8-5.8c2.7,2,5.9,2.9,9.4,2.9c3.1,0,4.7-0.6,4.7-1.8
				c0-1.4-2.2-1.3-5.9-1.8c-6.3-0.8-10.4-2.6-10.4-7.8c0-5.3,4.3-8.6,11.6-8.6c6.4,0,9.8,2.8,11.6,6.2l-6.2,2.7
				c-0.7-2-2.8-2.8-5.2-2.8c-2.8,0-4.2,0.9-4.2,1.9c0,1.1,1.7,1.4,5.2,1.8c6.7,0.9,11.3,2.1,11.3,7.8C26.5,45.9,21.6,48.7,13.9,48.7
				z M48,29.6h-8.2V39c0,2.2,1.4,3.1,3.5,3.1c1.6,0,2.9-0.4,4.4-1.1v6.5c-1.8,0.8-3.6,1.2-6.1,1.2c-5.4,0-9.3-2.7-9.3-8.7V29.6h-4.2
				V23h4.2v-7.7h7.5V23H48V29.6z M70.5,23H78v25h-7.5v-3.1c-1.9,2.3-4.6,3.8-8.2,3.8c-6.9,0-11.9-5.5-11.9-13.2
				c0-7.8,5-13.2,11.9-13.2c3.6,0,6.3,1.4,8.2,3.8V23z M70.5,38.9v-6.8c-1.5-2.2-3.6-3.2-6-3.2c-4,0-6.5,2.7-6.5,6.6
				c0,3.9,2.4,6.6,6.5,6.6C66.9,42.1,69,41.1,70.5,38.9z M91.4,27.5c2.1-3.6,5.4-5.2,9.3-5.1v7.8c-4-0.3-7.8,1.7-9.3,4.7V48h-7.5V23
				h7.5V27.5z M122.4,29.6h-8.2V39c0,2.2,1.4,3.1,3.5,3.1c1.6,0,2.9-0.4,4.4-1.1v6.5c-1.8,0.8-3.6,1.2-6.1,1.2
				c-5.4,0-9.3-2.7-9.3-8.7V29.6h-4.2V23h4.2v-7.7h7.5V23h8.2V29.6z M143.7,23h7.5v25h-7.5v-3.1c-2,2.4-4.6,3.8-8.1,3.8
				c-6,0-9.4-3.9-9.4-9.8V23h7.5v15.1c0,2.3,1.6,3.8,4.1,3.8c2.2,0,4.1-1.1,5.9-3.3V23z M172.8,22.3c6.9,0,11.9,5.4,11.9,13.2
				c0,7.7-5,13.2-11.9,13.2c-3.6,0-6.3-1.5-8.2-3.8v13.3h-7.5V23h7.5v3.1C166.5,23.8,169.2,22.3,172.8,22.3z M170.6,42.1
				c4,0,6.5-2.7,6.5-6.6c0-4-2.4-6.6-6.5-6.6c-2.4,0-4.4,1-6,3.2v6.8C166.1,41.1,168.2,42.1,170.6,42.1z"/>
			<path id="daily." class="st0" d="M209.1,12.3h7.5V48h-7.5v-3.1c-1.9,2.3-4.6,3.8-8.2,3.8c-6.9,0-12-5.5-12-13.2
				c0-7.8,5-13.2,12-13.2c3.6,0,6.3,1.4,8.2,3.8V12.3z M209.1,38.9v-6.8c-1.6-2.2-3.6-3.2-6-3.2c-4,0-6.5,2.7-6.5,6.6
				c0,3.9,2.5,6.6,6.5,6.6C205.5,42.1,207.6,41.1,209.1,38.9z M241.4,23h7.5v25h-7.5v-3.1c-1.9,2.3-4.6,3.8-8.2,3.8
				c-6.9,0-11.9-5.5-11.9-13.2c0-7.8,5-13.2,11.9-13.2c3.6,0,6.3,1.4,8.2,3.8V23z M241.4,38.9v-6.8c-1.5-2.2-3.6-3.2-6-3.2
				c-4,0-6.5,2.7-6.5,6.6c0,3.9,2.4,6.6,6.5,6.6C237.8,42.1,239.8,41.1,241.4,38.9z M258.5,19.6c-2.6,0-4.5-1.9-4.5-4.4
				c0-2.4,2-4.4,4.5-4.4c2.6,0,4.6,1.9,4.6,4.4C263.1,17.7,261.1,19.6,258.5,19.6z M262.3,23v25h-7.5V23H262.3z M268.2,48V11.3h7.5
				V48H268.2z M300.1,23h8.1v0.3l-14.5,34.9h-8.1v-0.3l4.8-10.3l-11.3-24.3V23h8.1l6.8,16.2L300.1,23z M311.6,48.7
				c-2.9,0-5-2.1-5-4.8s2.1-4.8,5-4.8c2.8,0,4.9,2.1,4.9,4.8S314.4,48.7,311.6,48.7z"/>
		</g>
	</g>
</g>
</svg>
