<?xml version="1.0" encoding="utf-8"?>
<!-- Generator: Adobe Illustrator 24.1.2, SVG Export Plug-In . SVG Version: 6.00 Build 0)  -->
<svg version="1.1" id="Layer_1" xmlns="http://www.w3.org/2000/svg" xmlns:xlink="http://www.w3.org/1999/xlink" x="0px" y="0px"
	 viewBox="0 0 379 52" style="enable-background:new 0 0 379 52;" xml:space="preserve">
<style type="text/css">
	.st0{fill-rule:evenodd;clip-rule:evenodd;fill:#AFBCCC;}
</style>
<desc>Created with Sketch.</desc>
<g id="DESKTOP">
	<g id="Desktop-HD-Copy-33" transform="translate(-169.000000, -16.000000)">
		<g id="Group-26" transform="translate(0.000000, -308.000000)">
			<path id="STOCKHEAD" class="st0" d="M191.6,374c8.1,0,13-4.2,13-12v-7.1c0-7.6-3.9-10.3-9.8-11.3l-9.4-1.4
				c-1.1-0.1-1.7-1-1.7-2.2s0.6-2,1.7-2h14.7c1.6,0,2.3-0.7,2.3-2.4v-8.1c0-1.7-0.7-2.4-2.3-2.4h-17.6c-8.2,0-13,4.2-13,12v7.1
				c0,7.6,3.8,10.3,9.8,11.3l9.5,1.4c1.1,0.1,1.6,0.7,1.6,2.3c0,1.1-0.6,2-1.6,2h-16.9c-1.6,0-2.3,0.7-2.3,2.4v8
				c0,1.7,0.7,2.4,2.3,2.4H191.6z M231,374c1.6,0,2.3-0.7,2.3-2.4v-33.4h9.3c1.6,0,2.3-0.7,2.3-2.4v-8.2c0-1.7-0.7-2.4-2.3-2.4
				h-33.3c-1.6,0-2.3,0.7-2.3,2.4v8.2c0,1.7,0.7,2.4,2.3,2.4h9.3v33.4c0,1.7,0.7,2.4,2.3,2.4H231z M287.6,361.1
				c0,8.3-3.8,13.9-19.5,13.9s-19.6-5.6-19.6-13.9V338c0-8.3,3.8-13.9,19.6-13.9s19.5,5.6,19.5,13.9V361.1z M262.8,358.7
				c0,1.8,0.8,3.2,5.3,3.2c4.6,0,5.3-1.4,5.3-3.2v-18.3c0-1.8-0.7-3.1-5.3-3.1c-4.5,0-5.3,1.4-5.3,3.1V358.7z M324.4,374
				c1.6,0,2.3-0.7,2.3-2.4v-8.1c0-1.7-0.7-2.4-2.3-2.4h-12.7c-2.6,0-3.8-1-3.8-3.3v-16.2c0-2.3,1.2-3.4,3.8-3.4h12.7
				c1.6,0,2.3-0.7,2.3-2.4v-8.2c0-1.7-0.7-2.4-2.3-2.4H309c-10.6,0-15.5,4.4-15.5,13.9v21.1c0,9.5,4.9,13.9,15.5,13.9H324.4z
				 M344.4,374c1.6,0,2.3-0.7,2.3-2.4V356h8.3c1.3,0,2,0.8,2,2.3v13.3c0,1.7,0.7,2.4,2.3,2.4h9.7c1.6,0,2.3-0.7,2.3-2.4v-19.2
				c0-5.4-3-9-7.7-9.2l6.4-15.8c0.6-1.4,0.1-2.2-1.4-2.2h-9.7c-1.6,0-2.5,0.6-3.2,2.2l-6.5,15.8h-2.5v-15.6c0-1.7-0.7-2.4-2.3-2.4
				h-9.8c-1.6,0-2.3,0.7-2.3,2.4v44.1c0,1.7,0.7,2.4,2.3,2.4H344.4z M390,374c1.6,0,2.3-0.7,2.3-2.4v-15.1h10.5v15.1
				c0,1.7,0.7,2.4,2.3,2.4h9.8c1.6,0,2.3-0.7,2.3-2.4v-44.1c0-1.7-0.7-2.4-2.3-2.4h-9.8c-1.6,0-2.3,0.7-2.3,2.4v14.8h-10.5v-14.8
				c0-1.7-0.7-2.4-2.3-2.4h-9.8c-1.6,0-2.3,0.7-2.3,2.4v44.1c0,1.7,0.7,2.4,2.3,2.4H390z M455.9,374c1.6,0,2.3-0.7,2.3-2.4v-8
				c0-1.7-0.7-2.4-2.3-2.4h-17.4v-5.8h12.3c1.6,0,2.3-0.7,2.3-2.4v-7.3c0-1.7-0.7-2.4-2.3-2.4h-12.3v-5.2h17.4
				c1.6,0,2.3-0.7,2.3-2.4v-8c0-1.7-0.7-2.4-2.3-2.4h-29.2c-1.6,0-2.3,0.7-2.3,2.4v44.1c0,1.7,0.7,2.4,2.3,2.4H455.9z M480.7,339.3
				l-3,10.3h9.9l-3-10.3c-0.3-0.8-0.7-1.2-1.2-1.2h-1.6C481.4,338.2,481,338.5,480.7,339.3z M477.1,371.6c0,1.7-0.7,2.4-2.3,2.4
				h-9.3c-1.6,0-2.3-0.7-2.3-2.4v-18c0-2.7,0.8-6.1,2.5-10.9l5.5-15.4c0.5-1.6,1.5-2.2,3.2-2.2h16.9c1.6,0,2.6,0.7,3.2,2.2l5.5,15.4
				c1.7,4.8,2.5,8.2,2.5,10.9v18c0,1.7-0.7,2.4-2.3,2.4h-9.5c-1.7,0-2.5-0.7-2.5-2.4V362h-11.2V371.6z M532.3,374h-21.2
				c-1.6,0-2.3-0.7-2.3-2.4v-44.1c0-1.7,0.7-2.4,2.3-2.4h21.2c10.6,0,15.5,4.4,15.5,13.9v21.2C547.8,369.6,542.9,374,532.3,374z
				 M523.1,338v23.1h7.5c2,0,3-1,3-3.3v-16.5c0-2.2-0.9-3.3-3-3.3H523.1z"/>
		</g>
	</g>
</g>
</svg>
