<?xml version="1.0" encoding="utf-8"?>
<!-- Generator: Adobe Illustrator 24.1.2, SVG Export Plug-In . SVG Version: 6.00 Build 0)  -->
<svg version="1.1" id="Layer_1" xmlns="http://www.w3.org/2000/svg" xmlns:xlink="http://www.w3.org/1999/xlink" x="0px" y="0px"
	 viewBox="0 0 754.1 68" style="enable-background:new 0 0 754.1 68;" xml:space="preserve">
<style type="text/css">
	.st0{fill:#AFBCCC;}
</style>
<polyline class="st0" points="0,0 95,0.1 95,26.6 73,26.6 73,13.4 61.7,13.4 61.7,54.7 75.1,54.7 75.1,68 20.6,68 20.6,54.6 
	32.9,54.6 32.9,13.4 21.9,13.4 21.9,26.6 0,26.6 0,0 "/>
<polyline class="st0" points="97.7,0 150.2,0 150.2,13.4 139.2,13.4 139.2,26.6 165.6,26.6 165.6,13.4 155,13.4 155,0 205.8,0 
	205.8,13.4 193.4,13.4 193.4,54.7 207.1,54.7 207.1,67.9 155.7,67.9 155.7,54.7 165.6,54.7 165.6,40.1 139.6,40.1 139.6,54.7 
	150.6,54.7 150.6,67.9 98.8,67.9 98.8,54.7 111.1,54.7 111.1,13.5 97.7,13.5 97.7,0 "/>
<polyline class="st0" points="210.2,0.1 296.3,0 296.3,27.4 276.8,27.4 276.8,12 252.4,12 252.4,27 268.9,27 268.9,39.8 252.8,39.8 
	252.8,56.3 276.8,56.3 276.8,39 296.7,39 296.7,67.9 211.3,67.9 211.3,54.8 225.3,54.8 225.3,13.4 210.2,13.4 210.2,0.1 "/>
<polyline class="st0" points="337.2,0 391.7,0 391.7,13.5 378.6,13.5 378.6,54.8 403,54.8 403,39 424.6,39 424.6,67.9 338.2,67.9 
	338.2,54.8 350.9,54.8 350.9,13.5 337.1,13.5 337.2,0 "/>
<path class="st0" d="M473.6,0h33.3l29.5,54.8h13.4v13.1h-61V54.7h12.7l-4.1-9.2H461l-4.8,9.1h14.4V68h-42.9V54.7h13.7L473.6,0
	 M468.8,25.9h21.3l-10.3-19L468.8,25.9z"/>
<polyline class="st0" points="552.9,0.1 591.6,0.1 629,39 629,13.4 615.3,13.4 615.3,0.1 654.7,0.1 654.7,13.5 641.3,13.5 
	641.3,67.9 614.9,67.9 580.3,30.5 580.3,54.7 593.3,54.7 593.3,67.9 553.9,67.9 553.9,54.7 566.2,54.7 566.2,13.4 552.9,13.4 
	552.9,0.1 "/>
<path class="st0" d="M719.2,0.1c19.3,0,34.9,15.2,34.9,33.8c0,18.7-16.3,34.1-35.6,34.1h-59.7V54.7h11.7V13.6h-12.7V0.1H719.2
	L719.2,0.1 M709.6,14h-11v40.3h10.9h0.6c11,0,19.9-9,19.9-20.2S720.6,14,709.6,14"/>
</svg>
