<?xml version="1.0" encoding="utf-8"?>
<!-- Generator: Adobe Illustrator 24.1.2, SVG Export Plug-In . SVG Version: 6.00 Build 0)  -->
<svg version="1.1" id="Layer_1" xmlns="http://www.w3.org/2000/svg" xmlns:xlink="http://www.w3.org/1999/xlink" x="0px" y="0px"
	 viewBox="0 0 851 201" style="enable-background:new 0 0 851 201;" xml:space="preserve">
<style type="text/css">
	.st0{opacity:0.5;}
	.st1{fill:#00053E;}
	.st2{fill:none;}
</style>
<g>
	<g class="st0">
		<rect x="383.2" y="7.2" class="st1" width="28.2" height="19.1"/>
		<path class="st1" d="M498.1,120.4v-15.8c-15.5-7.9-31.5-14.6-48-20.3v6.9c57.6,33.7,81.7,79.1,89.3,97.2c16,3.6,32.2,5.3,48.7,5.3
			c2.1,0,4.3,0,6.4,0c-13.6-32-41.8-56.6-71.2-74.8v1.7L498.1,120.4z"/>
		<path class="st1" d="M450.1,81.8c16.2,3.3,32.5,7.6,48,13.4V81.3c-15.5-3.3-31.3-5.7-47-7.2C450.6,77,450.1,79.4,450.1,81.8z"/>
		<path class="st1" d="M597,114.9v5.5h-25.6v-17c-15.5-6.4-31.8-11.7-48-16v17.9c43.5,19.6,82.4,47.8,114.6,82.6
			c13.9-3.1,27-8.6,39.2-16.2C653.8,148.9,626.6,129.5,597,114.9z"/>
	</g>
	<g>
		<path class="st1" d="M94,14.4h34.2L190,127.6h-32l-13.9-25.3H74.4l-12.7,25.3H32.4L94,14.4z M134.4,83.7l-25.1-49.2L84,83.7H134.4
			z"/>
		<path class="st1" d="M291,115.9c0,25.8-20.1,35.8-54,35.8c-26.3,0-46.3-6.4-47.3-25.8h25.6c0.2,7.6,9.3,11.7,21.3,11.7
			c18.6,0,28.9-7.2,28.9-21.5v-10.5h-0.2c-7.6,9.6-22.2,13.9-33.4,13.9c-29.9,0-46.6-18.6-46.6-39.6c0-25.3,19.3-40.8,45.9-40.8
			c16.5,0,27.5,5.5,35.3,13.9l1-10.7h24.1c-0.2,4.3-0.7,13.9-0.7,19.6L291,115.9z M239,104.4c17.2,0,26.5-10.7,26.5-25.3
			s-9.3-25.3-26.5-25.3s-26.5,10.7-26.5,25.3S221.8,104.4,239,104.4z"/>
		<path class="st1" d="M305.8,61.5c0-7.4-0.5-14.3-0.7-19.8h24.4c0.2,4.8,0.7,9.6,0.7,14.6h0.2c2.6-5.3,8.1-16,27.9-16
			c5.5,0,11,0.5,16.5,1.4v17.9c-1.7-0.2-3.6-0.5-5.3-0.7c-1.9-0.2-4.1-0.2-6.4-0.2c-20.5,0-31.8,8.4-31.8,29.9v31.8h-25.6V61.5z"/>
		<path class="st1" d="M410.2,41.6v78.8h-25.6V41.6H410.2z"/>
		<path class="st2" d="M450.1,82.5v1.9c16.5,5.7,32.5,12.4,48,20.3v-9.6c-15.5-5.5-31.8-10-48-13.4C450.1,82,450.1,82.2,450.1,82.5z
			"/>
		<path class="st2" d="M549.7,54.8c-13.4,0-26.3,8.6-26.3,27.7v4.8c16.2,4.3,32.2,9.8,48,16V78.9C571.4,59.3,561.9,54.8,549.7,54.8z
			"/>
		<path class="st2" d="M476.1,54.8c-11.2,0-22,6.2-25.3,19.6c15.8,1.4,31.5,3.8,47,7.2v-2.6C498.1,59.3,488.6,54.8,476.1,54.8z"/>
		<path class="st1" d="M557.1,38.8c-13.9,0-27.7,4.3-37,17.4c-6.9-11.2-19.8-17.4-35.8-17.4c-14.6,0-24.8,4.8-35.1,15.5
			c0-4.3-0.2-8.4-0.7-12.7h-24.6c0.2,5.7,0.7,13.4,0.7,19.3v59.5h25.6v-38c0-0.2,0-0.5,0-0.7c0-2.6,0.2-5,1-7.6
			c3.1-13.4,14.1-19.6,25.3-19.6c12.4,0,22,4.5,22,24.1v41.6h25.6V82.5c0-19.1,12.9-27.7,26.3-27.7c12.2,0,21.7,4.5,21.7,23.9v41.8
			h25.6V74.3C597,45,572.9,38.8,557.1,38.8z"/>
		<path class="st1" d="M709.5,105.6c0,5.3,0.2,9.6,0.7,14.8h-23.4c-0.5-3.6-0.7-7.2-0.7-10.7c-10.5,9.8-23.6,13.9-39.9,13.9
			c-29.6,0-39.6-12.9-39.6-24.1c0-24.6,25.1-28.9,57.3-28.9h20.3c0-14.1-10.5-17.7-23.4-17.7s-19.3,4.8-20.5,11h-26.5
			c2.6-20.3,25.8-25.1,47.5-25.1c23.6,0,48,6.2,48,33.9L709.5,105.6z M663.1,84.6c-19.3,0-30.1,3.8-30.1,13.1
			c0,5.3,4.8,12.4,19.3,12.4c12.7,0,31.5-6.9,31.8-25.8L663.1,84.6L663.1,84.6z"/>
		<path class="st1" d="M791.4,69.3c-1-10.5-8.8-16.5-20.3-16.5c-13.4,0-24.6,8.8-24.6,28.7c0,15.3,6.4,27.9,24.4,27.9
			c11.9,0,20.1-5.3,21.3-16.2h26.5c-0.2,20.8-22.7,30.3-47.8,30.3c-32,0-51.1-15.3-51.1-42.3c0-27.7,20.3-42.3,50.2-42.3
			c33.4,0,46.6,13.6,47.8,30.6L791.4,69.3z"/>
		<g>
			<path class="st1" d="M436.5,20.1h-7.6l-1.9,4.5h-2.4l7.2-15.8h2.6l7.2,15.8h-2.6L436.5,20.1z M432.7,11.3l-2.9,6.9h6L432.7,11.3z
				"/>
			<path class="st1" d="M452.2,16.3h7.2v8.4h-1.7l-0.2-2.1c-1.4,1.9-3.6,2.9-6,2.6c-4.3,0.5-7.9-2.6-8.4-6.9c0-0.2,0-0.7,0-1
				c-0.5-4.3,2.9-8.1,7.2-8.6c0.2,0,0.7,0,1,0c3.3,0,6.9,1,7.9,5.3h-2.4c-0.7-2.4-2.9-3.6-5.3-3.3c-3.1-0.2-5.7,2.4-6,5.5
				c0,0.2,0,0.5,0,0.7c-0.2,3.1,1.9,5.7,5,6.2c0.5,0,0.7,0,1.2,0c2.9,0.2,5.5-1.9,6-4.8h-5.3L452.2,16.3z"/>
			<path class="st1" d="M463.7,9.1h9.8c2.1-0.2,4.1,1.4,4.3,3.6c0,0.2,0,0.5,0,0.7c0.2,1.7-1,3.3-2.6,3.8l0,0
				c1.4,0.2,2.1,1.4,2.4,3.3c0.2,2.9,0.2,3.6,0.7,4.3h-2.4c-0.2-0.5-0.2-1.2-0.5-2.9c-0.2-2.9-1.2-3.6-3.1-3.6h-6.2v6.7h-2.4V9.1z
				 M472.5,16.1c2.1,0,2.9-1.4,2.9-2.4c0-1.4-1-2.4-2.9-2.4h-6.4v4.8H472.5z"/>
			<path class="st1" d="M481.4,9.1h2.4v15.8h-2.4V9.1z"/>
			<path class="st1" d="M512.2,9.1h3.3v15.8h-2.4V11.8l0,0l-6.2,12.9h-2.1l-6-12.7l0,0v12.7h-2.4V9.1h3.3L506,22L512.2,9.1z"/>
			<path class="st1" d="M530.1,20.1h-7.6l-1.9,4.5h-2.4l7.2-15.8h2.6l7.2,15.8h-2.6L530.1,20.1z M526.3,11.3l-2.9,6.9h6L526.3,11.3z
				"/>
			<path class="st1" d="M550.2,14.6c-0.5-2.6-2.9-4.3-5.3-4.1c-3.1-0.2-6,1.9-6.2,5c0,0.5,0,1,0,1.2c-0.2,3.1,1.9,5.7,5,6
				c0.2,0,0.5,0,1,0c2.6,0.2,5-1.7,5.5-4.3h2.4c-0.5,3.8-4.1,6.7-7.9,6.4c-4.3,0.5-7.9-2.9-8.4-6.9c0-0.5,0-1,0-1.4
				c-0.2-4.3,3.1-7.9,7.4-8.1c0.2,0,0.7,0,1,0c3.1,0,7.4,1.4,7.9,6L550.2,14.6z"/>
			<path class="st1" d="M569,17.3h-10.7v7.4h-2.4V9.1h2.4v6.2H569V9.1h2.4v15.8H569V17.3z"/>
			<path class="st1" d="M576,9.1h2.4v15.8H576V9.1z"/>
			<path class="st1" d="M585,12.3L585,12.3v12.4h-2.4V9.1h2.6l10,12.4l0,0V9.1h2.4v15.8h-2.6L585,12.3z"/>
			<path class="st1" d="M602.2,9.1h12.7v2.1h-10.3v4.5h10v1.9h-10v5h10.5v1.9h-12.9V9.1z"/>
			<path class="st1" d="M618.7,9.1h9.8c2.1-0.2,4.1,1.4,4.3,3.6c0,0.2,0,0.5,0,0.7c0.2,1.7-1,3.3-2.6,3.8l0,0
				c1.4,0.2,2.1,1.4,2.4,3.3c0.2,2.9,0.2,3.6,0.7,4.3h-2.4c-0.5-0.5-0.5-1.2-0.5-2.9c-0.2-2.9-1.2-3.6-3.1-3.6h-6.2v6.7h-2.4V9.1z
				 M627.5,16.1c2.4,0,2.9-1.4,2.9-2.4c0-1.4-1-2.4-2.9-2.4h-6.7v4.8H627.5z"/>
			<path class="st1" d="M647.6,9.1h2.9l-6.9,9.1v6.7h-2.4v-6.7l-6.9-9.1h2.9l5,7.2L647.6,9.1z"/>
			<path class="st1" d="M662.2,19.7c0,2.9,2.6,3.6,5,3.6c2.4,0,4.3-1,4.3-2.6c0-1.7-1.2-1.9-2.9-2.4l-3.6-0.5
				c-1.9-0.2-4.8-1-4.8-4.1s2.4-4.8,6.2-4.8c3.1,0,6.4,1.2,6.7,5h-2.4c-0.2-1.2-1-2.9-4.8-2.9c-1.7,0-3.6,0.7-3.6,2.6
				c0,1,0.7,1.7,2.6,2.1l3.8,0.7c1.2,0.2,4.8,0.7,4.8,4.1c0,4.1-3.6,5.3-6.7,5.3c-3.6,0-7.2-1.2-7.2-5.5L662.2,19.7z"/>
			<path class="st1" d="M676.7,9.1h8.1c3.3,0,5.3,1.7,5.3,4.5c0.2,2.6-1.7,4.8-4.3,5c-0.2,0-0.5,0-0.7,0h-6v6.2h-2.4L676.7,9.1z
				 M684.6,16.6c2.4,0,3.1-1.2,3.1-2.9c0-1.4-1-2.4-2.1-2.6c-0.2,0-0.2,0-0.5,0h-6v5.3L684.6,16.6L684.6,16.6z"/>
			<path class="st1" d="M693.5,9.1h12.7v2.1h-10.3v4.5h10v1.9h-10v5h10.5v1.9h-12.9V9.1z"/>
			<path class="st1" d="M722.6,14.6c-0.5-2.6-2.9-4.3-5.3-4.1c-3.1-0.2-5.7,2.1-6.2,5.3c0,0.5,0,0.7,0,1.2c-0.2,3.1,1.9,5.7,5,6
				c0.2,0,0.5,0,1,0c2.6,0.2,5-1.7,5.5-4.3h2.4c-0.5,3.8-4.1,6.7-7.9,6.4c-4.3,0.2-7.9-2.9-8.4-7.2c0-0.5,0-1,0-1.4
				c-0.2-4.3,3.1-7.9,7.4-8.1c0.2,0,0.7,0,1,0c3.1,0,7.4,1.4,7.9,6L722.6,14.6z"/>
			<path class="st1" d="M728.8,9.1h2.4v15.8h-2.4V9.1z"/>
			<path class="st1" d="M746,20.1h-7.6l-1.9,4.5h-2.4l7.2-15.8h2.6l7.2,15.8h-2.9L746,20.1z M741.9,11.3l-2.9,6.9h6L741.9,11.3z"/>
			<path class="st1" d="M753.2,9.1h2.4v13.6h9.6v1.9h-11.9V9.1z"/>
			<path class="st1" d="M768,9.1h2.4v15.8H768V9.1z"/>
			<path class="st1" d="M775.6,19.7c0,2.9,2.6,3.6,5,3.6c2.4,0,4.3-1,4.3-2.6c0-1.7-1.2-1.9-2.9-2.4l-3.6-0.5
				c-1.9-0.2-4.8-1-4.8-4.1s2.4-4.8,6.2-4.8c3.1,0,6.4,1.2,6.7,5h-2.4c-0.2-1.2-1-2.9-4.8-2.9c-1.7,0-3.6,0.7-3.6,2.6
				c0,1,0.7,1.7,2.6,2.1l3.8,0.7c1.2,0.2,4.8,0.7,4.8,4.1c0,4.1-3.6,5.3-6.7,5.3c-3.6,0-7.2-1.2-7.2-5.5L775.6,19.7z"/>
			<path class="st1" d="M794.5,11.1h-6V9.1h14.1v2.1h-6v13.6h-2.4L794.5,11.1z"/>
			<path class="st1" d="M806.4,19.7c0,2.9,2.6,3.6,5,3.6c2.4,0,4.3-1,4.3-2.6c0-1.7-1.2-1.9-2.9-2.4l-3.6-0.5
				c-1.9-0.2-4.8-1-4.8-4.1s2.1-4.8,6.2-4.8c3.1,0,6.4,1.2,6.7,5H815c-0.2-1.2-1-2.9-4.8-2.9c-1.7,0-3.6,0.7-3.6,2.6
				c0,1,0.7,1.7,2.6,2.1l3.8,0.7c1.2,0.2,4.8,0.7,4.8,4.1c0,4.1-3.6,5.3-6.7,5.3c-3.6,0-7.2-1.2-7.2-5.5L806.4,19.7z"/>
		</g>
	</g>
</g>
</svg>
