<?xml version="1.0" encoding="utf-8"?>
<!-- Generator: Adobe Illustrator 24.1.2, SVG Export Plug-In . SVG Version: 6.00 Build 0)  -->
<svg version="1.1" id="Layer_1" xmlns="http://www.w3.org/2000/svg" xmlns:xlink="http://www.w3.org/1999/xlink" x="0px" y="0px"
	 viewBox="0 0 851 201" style="enable-background:new 0 0 851 201;" xml:space="preserve">
<style type="text/css">
	.st0{fill:#00053E;}
</style>
<g>
	<path class="st0" d="M112.7,50.1L63.1,150.9h46.4L136,96L112.7,50.1z"/>
	<path class="st0" d="M139.9,104.1L117,150.9h46.4v-0.2l-5.7-11.7L139.9,104.1z"/>
	<path class="st0" d="M207.7,123.4c0-0.6,0-0.9,0-1.1c-0.4,0-0.8,0-1.1,0s-0.9,0-1.5,0s-1.1,0-1.7,0.2c-0.6,0-1.1,0.2-1.5,0.2
		c0-0.2,0-0.4,0.2-0.8c0-0.2,0-0.4,0-0.8c0-0.2,0-0.4,0-0.8c0-0.2,0-0.4-0.2-0.8c0.8,0,1.3,0,1.9,0c0.6,0,1.1,0,1.9,0
		c0.6,0,1.3,0,2.1,0c0.8,0,1.5,0,2.7,0c1.1,0,1.9,0,2.7,0c0.8,0,1.3,0,1.9,0c0.6,0,1.1,0,1.7,0c0.6,0,1.1,0,1.9,0
		c0,0.2,0,0.4-0.2,0.8c0,0.2,0,0.4,0,0.8c0,0.2,0,0.4,0,0.8c0,0.2,0,0.4,0.2,0.8c-0.4,0-0.9-0.2-1.5-0.2c-0.6,0-1.1-0.2-1.5-0.2
		c-0.6,0-0.9,0-1.5,0c-0.4,0-0.9,0-1.1,0c0,0.2,0,0.2,0,0.4c0,0.2,0,0.4,0,0.8v1.7v8c0,1.7,0,3.4,0,4.7s0.2,2.7,0.2,4.2
		c-0.4,0-0.8,0-1.1,0s-0.9,0-1.5,0c-0.6,0-0.9,0-1.5,0c-0.4,0-0.8,0-1.1,0c0-1.3,0.2-2.7,0.2-4.2c0-1.3,0-3,0-4.7v-8
		C207.7,124.5,207.7,124,207.7,123.4z"/>
	<path class="st0" d="M230.6,131.9v1.3c0,1.7,0,3.4,0,4.7s0.2,2.7,0.2,4.2c-0.4,0-0.8,0-1.1,0c-0.4,0-0.9,0-1.5,0
		c-0.6,0-0.9,0-1.5,0c-0.4,0-0.8,0-1.1,0c0-1.3,0.2-2.7,0.2-4.2c0-1.3,0-3,0-4.7v-4.4c0-1.7,0-3.4,0-4.7s-0.2-2.8-0.2-4.2
		c0.4,0,0.8,0,1.1,0.2c0.4,0,0.9,0,1.5,0c0.6,0,1.3,0,1.9,0c0.8,0,1.7,0,2.8,0c0.8,0,1.5,0,2.1,0c0.6,0,1.1,0.2,1.5,0.2
		s0.8,0.2,1.1,0.4s0.6,0.4,0.9,0.6c0.6,0.4,1.1,1.1,1.5,1.7c0.4,0.8,0.6,1.5,0.6,2.5c0,1.5-0.4,2.8-1.3,3.8
		c-0.9,0.9-2.1,1.7-3.8,2.1c0.9,1.9,2.1,3.6,3.4,5.5c1.1,1.9,2.3,3.6,3.6,5.3c-0.6,0-0.9,0-1.5,0c-0.4,0-0.9,0-1.5,0s-0.9,0-1.5,0
		c-0.6,0-0.9,0-1.5,0L230.6,131.9L230.6,131.9z M235.5,123.8c-0.2-0.6-0.6-0.9-0.9-1.3c-0.4-0.4-0.9-0.6-1.5-0.6s-1.3-0.2-2.3-0.2
		c0,2.8-0.2,5.9-0.2,8.7c0.2,0,0.2,0,0.4,0s0.2,0,0.4,0c1.3,0,2.5-0.4,3.2-1.1c0.8-0.8,1.1-1.9,1.1-3.4
		C235.7,125.1,235.7,124.4,235.5,123.8z"/>
	<path class="st0" d="M269.2,142c-0.6,0-0.9,0-1.5,0c-0.4,0-0.9,0-1.3,0s-0.9,0-1.3,0s-0.9,0-1.3,0c-0.4-1.1-0.8-2.1-1.1-3.2
		c-0.4-1.1-0.8-2.3-1.1-3.2c-0.8,0-1.3,0-2.1,0c-0.8,0-1.3,0-2.1,0c-0.6,0-1.1,0-1.7,0s-1.1,0-1.7,0c-0.4,1.1-0.8,2.3-1.1,3.2
		c-0.4,1.1-0.8,2.1-0.9,3.2c-0.2,0-0.6,0-0.8,0s-0.6,0-0.8,0c-0.2,0-0.6,0-0.8,0c-0.2,0-0.6,0-0.8,0c0.2-0.6,0.6-1.3,0.9-2.3
		c0.4-0.9,0.9-2.1,1.3-3.4c0.6-1.3,1.1-2.7,1.7-4c0.6-1.5,1.1-2.8,1.7-4.4c0.6-1.5,1.1-2.8,1.7-4.4c0.6-1.3,1.1-2.7,1.5-4
		c0.2,0,0.4,0,0.6,0.2c0.2,0,0.4,0,0.6,0s0.4,0,0.6,0c0.2,0,0.4,0,0.6-0.2c0.8,1.9,1.5,3.8,2.3,5.9s1.5,4.2,2.3,6.1
		c0.8,2.1,1.5,4,2.3,5.7C267.9,139.3,268.7,140.8,269.2,142z M257.9,126.1c-0.6,1.3-1.1,2.7-1.5,3.8c-0.6,1.3-0.9,2.5-1.5,3.8h5.9
		c-0.4-1.3-0.9-2.7-1.3-3.8C258.8,128.5,258.3,127.2,257.9,126.1z"/>
	<path class="st0" d="M292.9,139.7c-0.2,0.4-0.2,0.9-0.2,1.3c-1.7,0.9-4,1.3-6.6,1.3c-1.9,0-3.6-0.2-4.9-0.8
		c-1.5-0.6-2.7-1.3-3.8-2.3c-0.9-0.9-1.7-2.1-2.3-3.4c-0.6-1.3-0.8-2.7-0.8-4.2c0-2.3,0.4-4.2,1.1-5.7c0.8-1.5,1.7-2.8,2.8-3.8
		s2.5-1.7,4.2-2.1c1.5-0.4,3.2-0.8,4.9-0.8c0.6,0,1.1,0,1.7,0.2c0.6,0,1.1,0.2,1.9,0.4c0.6,0.2,1.1,0.4,1.7,0.6
		c0.6,0.2,0.9,0.4,1.3,0.6c-0.2,0.6-0.4,1.1-0.6,1.7c-0.2,0.6-0.2,1.1-0.2,1.7h-0.4c-0.8-0.9-1.7-1.7-2.5-2.3
		c-0.9-0.4-1.9-0.6-3-0.6c-0.9,0-1.7,0.2-2.7,0.6c-0.9,0.4-1.7,0.9-2.3,1.7c-0.8,0.8-1.3,1.9-1.7,3c-0.4,1.1-0.6,2.7-0.6,4.4
		c0,1.7,0.2,3,0.8,4.2c0.4,1.1,0.9,2.1,1.7,2.8c0.8,0.8,1.5,1.3,2.5,1.7c0.9,0.4,1.9,0.6,2.8,0.6c0.6,0,0.9,0,1.5-0.2
		s1.1-0.2,1.5-0.6c0.6-0.2,0.9-0.4,1.5-0.8c0.4-0.4,0.9-0.6,1.1-0.9l0.4,0.2C293.1,138.9,293.1,139.3,292.9,139.7z"/>
	<path class="st0" d="M306.1,123.4c0-0.6,0-0.9,0-1.1c-0.4,0-0.8,0-1.1,0s-0.9,0-1.5,0c-0.6,0-1.1,0-1.7,0.2c-0.6,0-1.1,0.2-1.5,0.2
		c0-0.2,0-0.4,0.2-0.8c0-0.2,0-0.4,0-0.8c0-0.2,0-0.4,0-0.8c0-0.2,0-0.4-0.2-0.8c0.8,0,1.3,0,1.9,0c0.6,0,1.1,0,1.9,0
		c0.6,0,1.3,0,2.1,0c0.8,0,1.5,0,2.7,0c0.9,0,1.9,0,2.7,0s1.3,0,1.9,0c0.6,0,1.1,0,1.7,0s1.1,0,1.9,0c0,0.2,0,0.4-0.2,0.8
		c0,0.2,0,0.4,0,0.8c0,0.2,0,0.4,0,0.8c0,0.2,0,0.4,0.2,0.8c-0.4,0-0.9-0.2-1.5-0.2c-0.6,0-1.1-0.2-1.5-0.2c-0.6,0-0.9,0-1.5,0
		c-0.4,0-0.9,0-1.1,0c0,0.2,0,0.2,0,0.4c0,0.2,0,0.4,0,0.8v1.7v8c0,1.7,0,3.4,0,4.7s0.2,2.7,0.2,4.2c-0.4,0-0.8,0-1.1,0
		c-0.4,0-0.9,0-1.5,0c-0.6,0-0.9,0-1.5,0c-0.4,0-0.8,0-1.1,0c0-1.3,0.2-2.7,0.2-4.2c0-1.3,0-3,0-4.7v-8
		C306.1,124.5,306.1,124,306.1,123.4z"/>
	<path class="st0" d="M322.6,126.6c0.6-1.3,1.5-2.7,2.5-3.6c1.1-1.1,2.5-1.9,4-2.5c1.5-0.6,3.2-0.9,5.1-0.9c1.7,0,3.4,0.2,4.7,0.8
		c1.5,0.4,2.8,1.1,3.8,2.1c1.1,0.9,1.9,2.1,2.7,3.6c0.6,1.5,0.9,3.2,0.9,5.1c0,1.5-0.4,3-0.9,4.5c-0.6,1.3-1.5,2.7-2.5,3.6
		c-1.1,1.1-2.5,1.9-3.8,2.5c-1.5,0.6-3.2,0.9-4.9,0.9c-1.7,0-3.2-0.2-4.7-0.6c-1.5-0.4-2.8-1.1-4-2.1c-1.1-0.9-1.9-2.1-2.7-3.6
		c-0.6-1.5-0.9-3.2-0.9-5.1S322,127.9,322.6,126.6z M340.6,126.6c-0.4-1.1-0.8-2.1-1.5-2.8c-0.6-0.8-1.3-1.3-2.3-1.7
		s-1.9-0.6-2.8-0.6c-1.1,0-2.1,0.2-3,0.8c-0.9,0.6-1.5,1.3-2.3,2.1c-0.6,0.9-1.1,1.9-1.3,3.2c-0.4,1.1-0.4,2.5-0.4,3.8
		c0,1.7,0.2,3.2,0.6,4.4c0.4,1.1,0.9,2.1,1.5,2.8c0.6,0.8,1.3,1.3,2.1,1.5c0.8,0.4,1.7,0.6,2.7,0.6c0.9,0,1.9-0.2,2.8-0.6
		c0.9-0.4,1.7-0.9,2.3-1.9c0.6-0.8,1.1-1.9,1.5-3.2c0.4-1.3,0.6-2.8,0.6-4.5C341.2,128.9,341,127.8,340.6,126.6z"/>
	<path class="st0" d="M359.5,131.9v1.3c0,1.7,0,3.4,0,4.7s0.2,2.7,0.2,4.2c-0.4,0-0.8,0-1.1,0c-0.4,0-0.9,0-1.5,0
		c-0.6,0-0.9,0-1.5,0c-0.4,0-0.8,0-1.1,0c0-1.3,0.2-2.7,0.2-4.2c0-1.3,0-3,0-4.7v-4.4c0-1.7,0-3.4,0-4.7s-0.2-2.8-0.2-4.2
		c0.4,0,0.8,0,1.1,0.2c0.4,0,0.9,0,1.5,0c0.6,0,1.3,0,1.9,0c0.8,0,1.7,0,2.8,0c0.8,0,1.5,0,2.1,0s1.1,0.2,1.5,0.2s0.8,0.2,1.1,0.4
		s0.6,0.4,0.9,0.6c0.6,0.4,1.1,1.1,1.5,1.7c0.4,0.8,0.6,1.5,0.6,2.5c0,1.5-0.4,2.8-1.3,3.8c-0.9,0.9-2.1,1.7-3.8,2.1
		c0.9,1.9,2.1,3.6,3.4,5.5c1.1,1.9,2.3,3.6,3.6,5.3c-0.6,0-0.9,0-1.5,0c-0.4,0-0.9,0-1.5,0s-0.9,0-1.5,0c-0.6,0-0.9,0-1.5,0
		L359.5,131.9L359.5,131.9z M364.3,123.8c-0.2-0.6-0.6-0.9-0.9-1.3c-0.4-0.4-0.9-0.6-1.5-0.6s-1.3-0.2-2.3-0.2
		c0,2.8-0.2,5.9-0.2,8.7c0.2,0,0.2,0,0.4,0c0.2,0,0.2,0,0.4,0c1.3,0,2.5-0.4,3.2-1.1s1.1-1.9,1.1-3.4
		C364.6,125.1,364.5,124.4,364.3,123.8z"/>
	<path class="st0" d="M401.2,141.8c-1.3,0.4-2.7,0.6-3.8,0.6c-0.9,0-1.9-0.2-2.7-0.4c-0.8-0.2-1.3-0.6-1.9-1.1
		c-0.6-0.6-0.9-0.9-1.1-1.7c-0.2-0.6-0.4-1.3-0.4-1.9c0-0.8,0.2-1.5,0.4-2.3c0.2-0.6,0.8-1.3,1.1-1.7c0.6-0.6,1.1-0.9,1.9-1.5
		c0.8-0.4,1.5-0.9,2.3-1.3c-0.8-0.9-1.3-1.9-1.7-2.7s-0.6-1.7-0.6-2.7c0-0.9,0.2-1.7,0.6-2.5c0.4-0.6,0.8-1.1,1.3-1.5
		s1.1-0.8,1.9-0.9c0.8-0.2,1.3-0.2,2.1-0.2s1.5,0,2.1,0.2c0.6,0.2,1.1,0.4,1.7,0.8c0.4,0.4,0.8,0.8,1.1,1.1c0.2,0.6,0.4,1.1,0.4,1.7
		c0,1.1-0.4,2.1-0.9,2.8c-0.8,0.8-1.7,1.7-3,2.7c0.8,1.1,1.7,2.1,2.5,3.2c0.8,0.9,1.7,2.1,2.7,3c0.6-0.8,1.1-1.5,1.9-2.5
		c0.8-0.9,1.3-2.3,2.1-3.6c0.4,0.4,0.6,0.8,0.9,0.9c0.4,0.4,0.6,0.6,0.9,0.9c-0.8,1.1-1.5,2.1-2.1,3c-0.8,0.9-1.5,1.7-2.3,2.7
		c0.4,0.4,0.8,0.8,1.1,1.3c0.4,0.4,0.8,0.9,1.3,1.3c0.4,0.4,0.8,0.9,1.3,1.3c0.4,0.4,0.8,0.8,1.1,1.1c-0.8,0-1.5,0-2.1,0
		c-0.6,0-1.3,0-1.9,0c-0.4,0-0.9,0-1.3,0s-0.9,0-1.3,0l-1.5-2.1C403.4,140.8,402.3,141.4,401.2,141.8z M395.7,137.2
		c0.2,0.6,0.6,0.9,0.9,1.5c0.4,0.4,0.9,0.8,1.5,1.1c0.6,0.2,1.3,0.4,1.9,0.4c0.6,0,1.3-0.2,1.9-0.4c0.6-0.2,1.1-0.6,1.5-0.9
		c-0.9-1.1-1.9-2.3-2.8-3.6c-0.9-1.1-1.9-2.3-2.8-3.6c-0.8,0.6-1.3,1.1-1.7,1.7c-0.4,0.6-0.6,1.3-0.6,2.1
		C395.5,136.3,395.5,136.7,395.7,137.2z M399.3,126.1c0.4,0.8,0.9,1.5,1.3,2.3c0.2-0.2,0.6-0.4,0.8-0.8c0.4-0.4,0.6-0.6,0.8-0.9
		c0.2-0.4,0.4-0.8,0.6-1.3c0.2-0.4,0.2-0.9,0.2-1.3c0-0.8-0.2-1.3-0.8-1.7c-0.4-0.4-0.9-0.6-1.5-0.6c-0.6,0-1.1,0.2-1.5,0.6
		s-0.8,0.9-0.8,1.7C398.7,124.5,398.9,125.3,399.3,126.1z"/>
	<path class="st0" d="M436.2,134.8c-0.2,2.5-0.4,4.7-0.6,7.2c-0.2,0-0.6,0-0.8,0s-0.6,0-0.8,0c-0.2,0-0.6,0-0.8,0s-0.6,0-0.8,0
		c0.8-3.6,1.3-7.4,1.9-11c0.6-3.6,0.9-7.4,1.5-11.2c0.2,0,0.4,0,0.6,0.2c0.2,0,0.4,0,0.6,0c0.2,0,0.4,0,0.6,0c0.2,0,0.4,0,0.8-0.2
		c0.6,1.3,1.1,2.7,1.9,4c0.6,1.3,1.3,2.7,1.9,4c0.6,1.3,1.3,2.7,1.9,3.8c0.6,1.3,1.3,2.5,1.9,3.6c1.3-2.5,2.7-4.9,3.8-7.6
		c1.3-2.7,2.5-5.3,3.6-7.8c0.6,0.2,0.9,0.2,1.3,0.2s0.8,0,1.3-0.2c0.2,1.9,0.4,3.8,0.8,5.9c0.2,2.1,0.6,4.2,0.8,6.2s0.4,4,0.8,5.7
		c0.2,1.7,0.4,3.2,0.6,4.2c-0.4,0-0.9,0-1.3,0s-0.9,0-1.3,0c-0.4,0-0.9,0-1.3,0s-0.9,0-1.3,0c-0.2-2.3-0.4-4.5-0.6-7.2
		c-0.2-2.7-0.6-5.1-0.8-7.6l0,0c-1.1,2.5-2.5,5.1-3.6,7.4c-1.1,2.5-2.3,4.9-3.6,7.4c-0.2,0-0.2,0-0.4,0c-0.2,0-0.2,0-0.4,0
		c-0.2,0-0.2,0-0.4,0c-0.2,0-0.2,0-0.4,0c-1.1-2.5-2.3-4.7-3.4-7.2c-1.1-2.5-2.3-4.9-3.6-7.4l0,0C436.6,130,436.4,132.5,436.2,134.8
		z"/>
	<path class="st0" d="M486,142c-0.6,0-0.9,0-1.5,0c-0.4,0-0.9,0-1.3,0s-0.9,0-1.3,0s-0.9,0-1.3,0c-0.4-1.1-0.8-2.1-1.1-3.2
		c-0.4-1.1-0.8-2.3-1.1-3.2c-0.8,0-1.3,0-2.1,0s-1.3,0-2.1,0c-0.6,0-1.1,0-1.7,0c-0.6,0-1.1,0-1.7,0c-0.4,1.1-0.8,2.3-1.1,3.2
		c-0.4,1.1-0.8,2.1-0.9,3.2c-0.2,0-0.6,0-0.8,0s-0.6,0-0.8,0c-0.2,0-0.6,0-0.8,0c-0.2,0-0.6,0-0.8,0c0.2-0.6,0.6-1.3,0.9-2.3
		c0.4-0.9,0.9-2.1,1.3-3.4c0.6-1.3,1.1-2.7,1.7-4c0.6-1.5,1.1-2.8,1.7-4.4s1.1-2.8,1.7-4.4c0.6-1.3,1.1-2.7,1.5-4
		c0.2,0,0.4,0,0.6,0.2c0.2,0,0.4,0,0.6,0c0.2,0,0.4,0,0.6,0c0.2,0,0.4,0,0.6-0.2c0.8,1.9,1.5,3.8,2.3,5.9s1.5,4.2,2.3,6.1
		c0.8,2.1,1.5,4,2.3,5.7C484.8,139.3,485.4,140.8,486,142z M474.6,126.1c-0.6,1.3-1.1,2.7-1.5,3.8c-0.6,1.3-0.9,2.5-1.5,3.8h5.9
		c-0.4-1.3-0.9-2.7-1.3-3.8C475.8,128.5,475.2,127.2,474.6,126.1z"/>
	<path class="st0" d="M509.6,139.7c-0.2,0.4-0.2,0.9-0.2,1.3c-1.7,0.9-4,1.3-6.6,1.3c-1.9,0-3.6-0.2-4.9-0.8
		c-1.5-0.6-2.7-1.3-3.8-2.3c-0.9-0.9-1.7-2.1-2.3-3.4c-0.6-1.3-0.8-2.7-0.8-4.2c0-2.3,0.4-4.2,1.1-5.7c0.8-1.5,1.7-2.8,2.8-3.8
		s2.5-1.7,4.2-2.1c1.5-0.4,3.2-0.8,4.9-0.8c0.6,0,1.1,0,1.7,0.2c0.6,0,1.1,0.2,1.9,0.4c0.6,0.2,1.1,0.4,1.7,0.6
		c0.6,0.2,0.9,0.4,1.3,0.6c-0.2,0.6-0.4,1.1-0.6,1.7c-0.2,0.6-0.2,1.1-0.2,1.7h-0.4c-0.8-0.9-1.7-1.7-2.5-2.3
		c-0.9-0.4-1.9-0.6-3-0.6c-0.9,0-1.7,0.2-2.7,0.6c-0.9,0.4-1.7,0.9-2.3,1.7c-0.8,0.8-1.3,1.9-1.7,3c-0.4,1.3-0.6,2.7-0.6,4.4
		c0,1.7,0.2,3,0.8,4.2c0.4,1.1,0.9,2.1,1.7,2.8c0.8,0.8,1.5,1.3,2.5,1.7c0.9,0.4,1.9,0.6,2.8,0.6c0.6,0,0.9,0,1.5-0.2
		s1.1-0.2,1.5-0.6c0.6-0.2,0.9-0.4,1.5-0.8c0.4-0.4,0.9-0.6,1.1-0.9l0.4,0.2C510,138.9,509.8,139.3,509.6,139.7z"/>
	<path class="st0" d="M530.7,131.4c-0.8,0-1.7,0-2.5,0s-1.7,0-2.5,0s-1.7,0-2.5,0.2v1.9c0,1.7,0,3.4,0,4.7s0.2,2.7,0.2,4.2
		c-0.4,0-0.8,0-1.1,0c-0.4,0-0.9,0-1.5,0s-0.9,0-1.5,0c-0.4,0-0.8,0-1.1,0c0-1.3,0.2-2.7,0.2-4.2c0-1.3,0-3,0-4.7v-4.4
		c0-1.7,0-3.4,0-4.7s-0.2-2.8-0.2-4.2c0.4,0,0.8,0,1.1,0.2c0.4,0,0.9,0,1.5,0s0.9,0,1.5,0c0.4,0,0.8,0,1.1-0.2
		c-0.2,1.3-0.2,2.8-0.2,4.2s0,2.8,0,4.7c0.6,0,1.1,0,2.1,0c0.8,0,1.7,0,2.8,0c1.1,0,2.1,0,2.8,0s1.3,0,2.1,0c0-1.7,0-3.4,0-4.7
		s-0.2-2.7-0.2-4.2c0.4,0,0.8,0,1.1,0.2c0.4,0,0.9,0,1.5,0s0.9,0,1.5,0c0.4,0,0.8,0,1.1-0.2c0,1.3-0.2,2.8-0.2,4.2s0,3,0,4.7v4.4
		c0,1.7,0,3.4,0,4.7s0.2,2.7,0.2,4.2c-0.4,0-0.8,0-1.1,0c-0.4,0-0.9,0-1.5,0s-0.9,0-1.5,0c-0.4,0-0.8,0-1.1,0c0-1.3,0.2-2.7,0.2-4.2
		c0-1.3,0-3,0-4.7v-1.9C532.2,131.4,531.4,131.4,530.7,131.4z"/>
	<path class="st0" d="M547.9,124.2c0-1.3-0.2-2.8-0.2-4.2c0.4,0,0.8,0,1.1,0.2c0.4,0,0.9,0,1.5,0c0.6,0,0.9,0,1.5,0
		c0.4,0,0.8,0,1.1-0.2c0,1.3-0.2,2.8-0.2,4.2s0,3,0,4.7v4.4c0,1.7,0,3.4,0,4.7s0.2,2.7,0.2,4.2c-0.4,0-0.8,0-1.1,0
		c-0.4,0-0.9,0-1.5,0c-0.6,0-0.9,0-1.5,0c-0.4,0-0.8,0-1.1,0c0-1.3,0.2-2.7,0.2-4.2c0-1.3,0-3,0-4.7v-4.4
		C547.9,127,547.9,125.5,547.9,124.2z"/>
	<path class="st0" d="M562.8,122.6c0-0.9,0-1.9-0.2-2.7c0.6,0.2,1.1,0.2,1.5,0.2s0.8,0,1.5-0.2c2.3,2.7,4.7,5.1,7,7.6
		c2.3,2.5,4.5,5.1,7,7.6v-2.8v-3c0-1.1,0-2.1,0-3s0-1.9,0-2.8s0-1.5,0-2.3c0-0.6,0-0.9-0.2-1.3c0.6,0.2,1.1,0.2,1.5,0.2
		s0.8,0,1.5-0.2c-0.2,1.9-0.2,3.8-0.2,5.3c0,1.5-0.2,3-0.2,4.5c0,1.3,0,2.8,0,4.2s0,2.8,0,4.4v3.8c-0.4,0-0.9,0-1.3,0
		c-0.4,0-0.9,0-1.3,0c-4.4-5.1-9.1-10.4-14-15.5c0,0.6,0,1.3,0,1.9c0,0.6,0,1.3,0,1.9v3.8c0,1.3,0,2.5,0,3.2c0,0.9,0,1.7,0,2.3
		c0,0.6,0,1.1,0,1.5c0,0.4,0,0.8,0,0.9c-0.2,0-0.6,0-0.8,0s-0.6,0-0.8,0c-0.6,0-0.9,0-1.5,0c0-0.2,0.2-0.8,0.2-1.9
		c0-1.1,0.2-2.3,0.2-3.8c0-1.5,0.2-3.2,0.2-4.9c0-1.7,0-3.4,0-5.1C562.8,124.9,562.8,123.6,562.8,122.6z"/>
	<path class="st0" d="M591.6,124.2c0-1.3-0.2-2.8-0.2-4.2c0.9,0,1.9,0,2.8,0.2c0.9,0,1.9,0,2.8,0c1.5,0,3,0,4.2,0
		c1.3,0,2.1,0,2.5-0.2c0,0.4-0.2,0.8-0.2,1.3c0,0.4,0,0.6,0,0.8s0,0.4,0.2,0.6c-0.6,0-1.3,0-2.1-0.2c-0.8,0-1.5,0-2.1-0.2
		c-0.8,0-1.3,0-1.9-0.2c-0.6-0.2-0.9,0-1.1,0c0,1.1-0.2,2.3-0.2,3.6c0,1.1,0,2.3,0,3.6c1.3,0,2.7,0,3.8-0.2c1.1,0,2.3-0.2,3.6-0.2
		c0,0.4-0.2,0.6-0.2,0.8s0,0.4,0,0.6s0,0.4,0,0.6s0,0.4,0.2,0.8c-2.5-0.2-4.9-0.4-7.4-0.4c0,0.8,0,1.3,0,2.1s0,1.3,0,2.1
		c0,1.3,0,2.7,0.2,4c1.1,0,2.5,0,3.6-0.2c1.1,0,2.5-0.2,3.8-0.4c0,0.2,0,0.4-0.2,0.6c0,0.2,0,0.4,0,0.8c0,0.4,0,0.6,0,0.8
		s0,0.4,0.2,0.6c-0.6,0-1.3,0-2.1,0s-2.1,0-3.4,0c-1.3,0-2.5,0-3.2,0s-1.5,0-1.9,0c-0.6,0-0.8,0-1.1,0c-0.2,0-0.4,0-0.6,0
		c0-1.3,0.2-2.7,0.2-4.2c0-1.3,0-3,0-4.7v-4.4C591.8,127,591.6,125.5,591.6,124.2z"/>
	<path class="st0" d="M617.4,131.9v1.3c0,1.7,0,3.4,0,4.7s0.2,2.7,0.2,4.2c-0.4,0-0.8,0-1.1,0c-0.4,0-0.9,0-1.5,0s-0.9,0-1.5,0
		c-0.4,0-0.8,0-1.1,0c0-1.3,0.2-2.7,0.2-4.2c0-1.3,0-3,0-4.7v-4.4c0-1.7,0-3.4,0-4.7s-0.2-2.8-0.2-4.2c0.4,0,0.8,0,1.1,0.2
		c0.4,0,0.9,0,1.5,0s1.3,0,1.9,0c0.8,0,1.7,0,2.8,0c0.8,0,1.5,0,2.1,0c0.6,0,1.1,0.2,1.5,0.2s0.8,0.2,1.1,0.4
		c0.4,0.2,0.6,0.4,0.9,0.6c0.6,0.4,1.1,1.1,1.5,1.7c0.4,0.8,0.6,1.5,0.6,2.5c0,1.5-0.4,2.8-1.3,3.8c-0.9,0.9-2.1,1.7-3.8,2.1
		c0.9,1.9,2.1,3.6,3.4,5.5c1.1,1.9,2.3,3.6,3.6,5.3c-0.6,0-0.9,0-1.5,0c-0.4,0-0.9,0-1.5,0c-0.6,0-0.9,0-1.5,0s-0.9,0-1.5,0
		l-5.7-10.2C617.5,131.9,617.4,131.9,617.4,131.9z M622.1,123.8c-0.2-0.6-0.6-0.9-0.9-1.3c-0.4-0.4-0.9-0.6-1.5-0.6
		s-1.3-0.2-2.3-0.2c0,2.8-0.2,5.9-0.2,8.7c0.2,0,0.2,0,0.4,0s0.2,0,0.4,0c1.3,0,2.5-0.4,3.2-1.1c0.8-0.8,1.1-1.9,1.1-3.4
		C622.5,125.1,622.3,124.4,622.1,123.8z"/>
	<path class="st0" d="M645.6,127.6c0.4-0.8,0.8-1.5,1.3-2.5c0.4-0.9,0.8-1.7,1.1-2.7c0.4-0.9,0.8-1.7,1.1-2.5c0.2,0,0.6,0,0.8,0.2
		c0.2,0,0.6,0,0.8,0c0.2,0,0.6,0,0.8,0c0.2,0,0.6,0,0.8-0.2c-0.4,0.6-0.8,1.3-1.3,2.3s-1.1,2.1-1.7,3.2c-0.6,1.1-1.3,2.3-1.9,3.4
		c-0.6,1.1-1.1,2.3-1.7,3.2c0,0.6,0,0.9,0,1.5c0,0.6,0,1.1,0,1.5c0,1.1,0,2.3,0,3.2c0,1.1,0.2,2.3,0.2,3.4c-0.4,0-0.9,0-1.3,0
		c-0.4,0-0.9,0-1.3,0c-0.4,0-0.9,0-1.3,0c-0.4,0-0.9,0-1.3,0c0-0.9,0.2-2.1,0.2-3c0.2-0.9,0.2-2.1,0.2-3c0-0.6,0-0.9,0-1.5
		c0-0.6,0-0.9,0-1.5c-0.6-1.1-1.1-2.3-1.9-3.6c-0.8-1.3-1.3-2.7-2.1-3.8c-0.6-1.3-1.3-2.5-1.9-3.4s-0.9-1.7-1.1-2.3
		c0.6,0,0.9,0,1.5,0.2c0.4,0,0.9,0,1.5,0c0.6,0,0.9,0,1.5,0c0.4,0,0.9,0,1.5-0.2c0.4,0.8,0.8,1.7,1.3,2.7c0.4,0.9,0.9,1.9,1.3,2.8
		c0.4,0.9,0.9,1.7,1.3,2.5c0.4,0.8,0.8,1.3,0.9,1.7l0,0C644.6,128.9,645,128.3,645.6,127.6z"/>
	<path class="st0" d="M673.6,124.2c0-1.3-0.2-2.8-0.2-4.2c0.4,0,0.8,0,1.1,0.2c0.4,0,0.9,0,1.5,0c0.8,0,1.5,0,2.5,0
		c0.9,0,2.1,0,3.4,0c1.9,0,3.6,0.2,5.1,0.6c1.5,0.4,2.8,0.9,4,1.7c1.1,0.8,1.9,1.9,2.5,3.2s0.9,3,0.9,5.1c0,1.7-0.4,3.4-0.9,4.9
		s-1.3,2.7-2.5,3.6c-0.9,0.9-2.3,1.7-3.6,2.3c-1.3,0.6-2.8,0.8-4.4,0.8s-3,0-4.2,0s-2.1,0-3,0c-0.6,0-0.9,0-1.5,0
		c-0.4,0-0.8,0-1.1,0c0-1.3,0.2-2.7,0.2-4.2c0-1.3,0-3,0-4.7v-4.4C673.8,127,673.8,125.5,673.6,124.2z M678.5,135.5v1.9
		c0,0.6,0,1.1,0,1.7s0,0.8,0,0.9c0.4,0,0.8,0,1.1,0c0.4,0,0.9,0,1.7,0c2.5,0,4.4-0.8,5.7-2.5s2.1-4.2,2.1-7.6c0-1.3-0.2-2.5-0.6-3.6
		c-0.4-1.1-0.9-1.9-1.5-2.7c-0.6-0.8-1.3-1.3-2.3-1.7c-0.9-0.4-1.9-0.6-3-0.6c-0.8,0-1.3,0-1.9,0c-0.6,0-0.9,0-1.5,0.2
		c0,0.2,0,0.6,0,0.9c0,0.6,0,1.1,0,1.7v1.9v1.7v5.7v1.9H678.5z"/>
	<path class="st0" d="M702.7,124.2c0-1.3-0.2-2.8-0.2-4.2c0.9,0,1.9,0,2.8,0.2c0.9,0,1.9,0,2.8,0c1.5,0,3,0,4.2,0
		c1.3,0,2.1,0,2.5-0.2c0,0.4-0.2,0.8-0.2,1.3c0,0.4,0,0.6,0,0.8s0,0.4,0.2,0.6c-0.6,0-1.3,0-2.1-0.2c-0.8,0-1.5,0-2.1-0.2
		c-0.8,0-1.3,0-1.9-0.2c-0.6,0-0.9,0-1.1,0c0,1.1-0.2,2.3-0.2,3.6c0,1.1,0,2.3,0,3.6c1.3,0,2.7,0,3.8-0.2c1.1,0,2.3-0.2,3.6-0.2
		c0,0.4-0.2,0.6-0.2,0.8s0,0.4,0,0.6s0,0.4,0,0.6s0,0.4,0.2,0.8c-2.5-0.2-4.9-0.4-7.4-0.4c0,0.8,0,1.3,0,2.1s0,1.3,0,2.1
		c0,1.3,0,2.7,0.2,4c1.1,0,2.5,0,3.6-0.2c1.1,0,2.5-0.2,3.8-0.4c0,0.2,0,0.4-0.2,0.6c0,0.2,0,0.4,0,0.8c0,0.4,0,0.6,0,0.8
		s0,0.4,0.2,0.6c-0.6,0-1.3,0-2.1,0s-2.1,0-3.4,0s-2.5,0-3.2,0s-1.5,0-1.9,0c-0.6,0-0.8,0-1.1,0c-0.2,0-0.4,0-0.6,0
		c0-1.3,0.2-2.7,0.2-4.2c0-1.3,0-3,0-4.7v-4.4C702.7,127,702.7,125.5,702.7,124.2z"/>
	<path class="st0" d="M742.1,142c-0.6,0-0.9,0-1.5,0s-0.9,0-1.3,0c-0.4,0-0.9,0-1.3,0s-0.9,0-1.3,0c-0.4-1.1-0.8-2.1-1.1-3.2
		c-0.4-1.1-0.8-2.3-1.1-3.2c-0.8,0-1.3,0-2.1,0s-1.3,0-2.1,0c-0.6,0-1.1,0-1.7,0c-0.6,0-1.1,0-1.7,0c-0.4,1.1-0.8,2.3-1.1,3.2
		c-0.4,1.1-0.8,2.1-0.9,3.2c-0.2,0-0.6,0-0.8,0s-0.6,0-0.8,0c-0.2,0-0.6,0-0.8,0c-0.2,0-0.6,0-0.8,0c0.2-0.6,0.6-1.3,0.9-2.3
		c0.4-0.9,0.9-2.1,1.3-3.4c0.6-1.3,1.1-2.7,1.7-4c0.6-1.5,1.1-2.8,1.7-4.4s1.1-2.8,1.7-4.4c0.6-1.3,1.1-2.7,1.5-4
		c0.2,0,0.4,0,0.6,0.2c0.2,0,0.4,0,0.6,0c0.2,0,0.4,0,0.6,0c0.2,0,0.4,0,0.6-0.2c0.8,1.9,1.5,3.8,2.3,5.9c0.8,2.1,1.5,4.2,2.3,6.1
		c0.8,2.1,1.5,4,2.3,5.7C741,139.3,741.5,140.8,742.1,142z M730.7,126.1c-0.6,1.3-1.1,2.7-1.5,3.8c-0.6,1.3-0.9,2.5-1.5,3.8h5.9
		c-0.4-1.3-0.9-2.7-1.3-3.8C731.9,128.5,731.3,127.2,730.7,126.1z"/>
	<path class="st0" d="M749.7,124.2c0-1.3-0.2-2.8-0.2-4.2c0.4,0,0.8,0,1.1,0.2c0.4,0,0.9,0,1.5,0c0.6,0,0.9,0,1.5,0
		c0.4,0,0.8,0,1.1-0.2c0,1.3-0.2,2.8-0.2,4.2s0,3,0,4.7v4.4c0,1.1,0,2.5,0,3.6c0,1.1,0,2.1,0,3c1.1,0,2.5,0,3.6-0.2
		c1.1,0,2.5-0.2,3.8-0.4c0,0.2,0,0.4-0.2,0.6c0,0.2,0,0.4,0,0.8s0,0.6,0,0.8c0,0.2,0,0.4,0.2,0.6c-0.6,0-1.3,0-2.1,0
		c-0.8,0-2.1,0-3.4,0s-2.5,0-3.2,0s-1.5,0-1.9,0c-0.6,0-0.8,0-1.1,0c-0.2,0-0.4,0-0.6,0c0-1.3,0.2-2.7,0.2-4.2c0-1.3,0-3,0-4.7v-4.4
		C749.7,127,749.7,125.5,749.7,124.2z"/>
	<path class="st0" d="M769.6,124.2c0-1.3,0-2.8-0.2-4.2c0.9,0,1.9,0,2.8,0.2c0.9,0,1.9,0,2.8,0c1.5,0,3,0,4.2,0c1.3,0,2.1,0,2.5-0.2
		c0,0.4-0.2,0.8-0.2,1.3c0,0.4,0,0.6,0,0.8s0,0.4,0.2,0.6c-0.6,0-1.3,0-2.1-0.2c-0.8,0-1.5,0-2.1-0.2c-0.8,0-1.3,0-1.9-0.2
		c-0.6,0-0.9,0-1.1,0c0,1.1-0.2,2.3-0.2,3.6c0,1.1,0,2.3,0,3.6c1.3,0,2.7,0,3.8-0.2c1.1,0,2.3-0.2,3.6-0.2c0,0.4-0.2,0.6-0.2,0.8
		s0,0.4,0,0.6s0,0.4,0,0.6s0,0.4,0.2,0.8c-2.5-0.2-4.9-0.4-7.4-0.4c0,0.8,0,1.3,0,2.1s0,1.3,0,2.1c0,1.3,0,2.7,0.2,4
		c1.1,0,2.5,0,3.6-0.2c1.1,0,2.5-0.2,3.8-0.4c0,0.2,0,0.4-0.2,0.6c0,0.2,0,0.4,0,0.8c0,0.4,0,0.6,0,0.8s0,0.4,0.2,0.6
		c-0.6,0-1.3,0-2.1,0s-2.1,0-3.4,0c-1.3,0-2.5,0-3.2,0c-0.8,0-1.5,0-1.9,0c-0.6,0-0.8,0-1.1,0c-0.2,0-0.4,0-0.6,0
		c0-1.3,0.2-2.7,0.2-4.2c0-1.3,0-3,0-4.7v-4.4C769.6,127,769.6,125.5,769.6,124.2z"/>
	<path class="st0" d="M795.3,131.9v1.3c0,1.7,0,3.4,0,4.7s0.2,2.7,0.2,4.2c-0.4,0-0.8,0-1.1,0s-0.9,0-1.5,0s-0.9,0-1.5,0
		c-0.4,0-0.8,0-1.1,0c0-1.3,0.2-2.7,0.2-4.2c0-1.3,0-3,0-4.7v-4.4c0-1.7,0-3.4,0-4.7s-0.2-2.8-0.2-4.2c0.4,0,0.8,0,1.1,0.2
		c0.4,0,0.9,0,1.5,0s1.3,0,1.9,0c0.8,0,1.7,0,2.8,0c0.8,0,1.5,0,2.1,0s1.1,0.2,1.5,0.2c0.4,0,0.8,0.2,1.1,0.4
		c0.4,0.2,0.6,0.4,0.9,0.6c0.6,0.4,1.1,1.1,1.5,1.7c0.4,0.8,0.6,1.5,0.6,2.5c0,1.5-0.4,2.8-1.3,3.8c-0.9,0.9-2.1,1.7-3.8,2.1
		c0.9,1.9,2.1,3.6,3.4,5.5c1.1,1.9,2.3,3.6,3.6,5.3c-0.6,0-0.9,0-1.5,0s-0.9,0-1.5,0s-0.9,0-1.5,0s-0.9,0-1.5,0l-5.7-10.2
		C795.5,131.9,795.3,131.9,795.3,131.9z M800,123.8c-0.2-0.6-0.6-0.9-0.9-1.3c-0.4-0.4-0.9-0.6-1.5-0.6c-0.6,0-1.3-0.2-2.3-0.2
		c0,2.8-0.2,5.9-0.2,8.7c0.2,0,0.2,0,0.4,0c0.2,0,0.2,0,0.4,0c1.3,0,2.5-0.4,3.2-1.1c0.8-0.8,1.1-1.9,1.1-3.4
		C800.4,125.1,800.2,124.4,800,123.8z"/>
	<path class="st0" d="M820.7,121.5c-0.9,0-1.7,0.4-2.5,0.9c-0.6,0.6-0.9,1.3-0.9,2.1c0,0.8,0.2,1.5,0.8,1.9c0.6,0.6,1.1,0.9,1.9,1.3
		c0.8,0.4,1.5,0.8,2.3,1.1c0.8,0.4,1.7,0.8,2.3,1.3c0.8,0.6,1.3,1.1,1.9,2.1c0.6,0.8,0.8,1.7,0.8,3c0,1.1-0.2,2.1-0.6,3
		c-0.4,0.9-0.9,1.7-1.7,2.3s-1.7,1.1-2.7,1.5c-1.1,0.4-2.3,0.6-3.4,0.6c-1.1,0-2.3-0.2-3-0.4c-0.9-0.2-1.5-0.6-2.1-0.9
		c0.2-0.8,0.4-1.5,0.6-2.1c0.2-0.6,0.2-1.3,0.4-2.1h0.6c0,0.4,0.2,0.9,0.6,1.3c0.4,0.4,0.6,0.8,0.9,1.1c0.4,0.4,0.8,0.6,1.3,0.8
		c0.6,0.2,1.1,0.2,1.7,0.2c1.3,0,2.3-0.4,2.8-0.9c0.6-0.6,0.9-1.3,0.9-2.3c0-0.8-0.2-1.5-0.8-2.1c-0.4-0.6-1.1-0.9-1.7-1.3
		c-0.8-0.4-1.5-0.8-2.3-1.1c-0.8-0.4-1.5-0.8-2.3-1.3c-0.8-0.6-1.3-1.1-1.7-1.9c-0.4-0.8-0.8-1.7-0.8-3c0-1.1,0.2-2.1,0.6-3
		c0.4-0.9,0.9-1.5,1.5-2.1c0.8-0.6,1.5-0.9,2.3-1.3c0.9-0.4,1.7-0.4,2.8-0.4c1.1,0,2.1,0.2,3,0.4s1.7,0.8,2.3,1.1
		c-0.2,0.6-0.4,0.9-0.6,1.5c-0.2,0.4-0.4,1.1-0.6,1.7h-0.6C823.9,122.5,822.6,121.5,820.7,121.5z"/>
	<path class="st0" d="M188.6,111.1h651.8v3.4H188.6V111.1z"/>
	<path class="st0" d="M188.6,147.4h651.8v3.4H188.6V147.4z"/>
	<path class="st0" d="M257.3,101.3h14.8V51.8h-23.5l-18.4,38.2l-19.1-38.4h-22.5v49.6H203V64.3l18.7,36.9h17.4l18-36.2L257.3,101.3z
		"/>
	<path class="st0" d="M283.6,52h16.1v49.4h-16.1V52z"/>
	<path class="st0" d="M441.3,101.8V52.2h-16.8v36.2l-30.9-36.2h-21.8v49.4h16.5l-0.4-35l31.8,35.2H441.3z"/>
	<path class="st0" d="M449.6,77c0,16.8,15.1,24.2,30.1,24.2h32.7v-8.9h-29.3c-6.4,0-12.3-4.2-13.8-9.7l-0.4-1.1h43.4v-9.1h-43.5
		l0.2-1.1c0.9-7,8.3-10,15-10h28v-9.1h-30.3C466.1,52.2,449.6,58.7,449.6,77z"/>
	<path class="st0" d="M595.6,78l-1.7-0.8l1.7-0.9c5.3-2.8,7.8-6.2,7.8-10.4c0-2.8-0.9-5.5-3.2-7.6c-4.2-4.2-11.2-5.7-16.1-5.7h-41.5
		v49h43.4c5.7,0,11.7-2.3,15-5.7c2.1-2.3,3.2-4.7,3.2-7.6C604.3,84,601.5,80.6,595.6,78z M557.9,62.3h20.6c3.4,0,7.2,2.3,7.2,5.7
		c0,3.2-3.4,5.3-6.4,5.3l-21.4,0.2V62.3z M580.1,92.9h-22.5V82.1h22c2.8,0,7.2,1.7,7.2,5.3C586.5,90.5,583.7,92.9,580.1,92.9z"/>
	<path class="st0" d="M664.1,101.6h19.3l-18.4-19.9l1.5-0.4c4.4-1.1,14.8-4.7,14.8-14.2c0-8.9-10.2-15-19.5-15h-48.7v49.6h16.5V82.9
		h17.2L664.1,101.6z M629.7,74.6V60.9H649c3,0,12.5,0.4,12.5,6.4c0,5.1-7.4,7.2-12.1,7.2H629.7z"/>
	<path class="st0" d="M695.9,94.3c5.9,5.9,15.9,8.7,30.7,8.7c24,0,36.3-8.3,36.3-24.6c0-22.5-14.6-27.3-36.5-27.3
		c-11,0-36.7,2.5-36.9,25.4C689.5,84,691.8,90.1,695.9,94.3z M726.4,60.4h0.2c11.9,0,18.9,6.1,18.9,16.3c0,11.5-6.1,17.2-18.4,17.2
		c-10,0-20.4-2.1-20.4-17.2C706.9,66.4,714.1,60.4,726.4,60.4z"/>
	<path class="st0" d="M819.9,72.1h-21.6c-3.4,0-8.5-1.5-8.5-5.7c0-3.6,4.9-5.5,7.8-5.5h39.8v-8.7h-44.9c-9.3,0-22.9,3.8-22.9,14
		c0,0.4,0,0.8,0,1.1c1.1,10.2,11,12.3,25.6,12.3c1.7,0,3.4,0,5.1,0c1.7,0,3.2,0,4.7,0c8.5,0,17,0.6,17,7.4c0,3.8-4.9,5.1-9.3,5.1
		h-38.8v9.3c8.3,0,16.5,0,24.2,0s15.3,0,22.9,0c8.5,0,20.8-4.7,20.8-15.3C841.7,75.1,827.5,72.1,819.9,72.1z"/>
	<path class="st0" d="M342.3,101.6h18v-8.3H345c-10.6,0-15.9-3.4-15.9-10v-31h-17.8v31.2C311.1,95.8,321.3,101.6,342.3,101.6z"/>
	<path class="st0" d="M58.9,50.1L9.1,150.9h46.4L82,96L58.9,50.1z"/>
</g>
</svg>
