<?xml version="1.0" encoding="utf-8"?>
<!-- Generator: Adobe Illustrator 24.1.2, SVG Export Plug-In . SVG Version: 6.00 Build 0)  -->
<svg version="1.1" id="Layer_1" xmlns="http://www.w3.org/2000/svg" xmlns:xlink="http://www.w3.org/1999/xlink" x="0px" y="0px"
	 viewBox="0 0 851 201" style="enable-background:new 0 0 851 201;" xml:space="preserve">
<style type="text/css">
	.st0{fill:#00053E;}
</style>
<g>
	<g>
		<path class="st0" d="M97.9,180.4c-47.1,0-77.9-42-79.2-43.8c-2.9-4.1-2-9.8,2.1-12.7c4.1-2.9,9.7-2,12.7,2.1
			c0.3,0.4,26.7,36.3,64.5,36.3c0.3,0,0.7,0,1,0c28.9-0.5,57.7-21.6,85.5-62.9c29.4-43.6,63.9-66.8,102.5-69
			c68.4-3.6,123.4,59.9,125.7,62.6c3.3,3.8,2.8,9.6-1,12.8c-3.8,3.3-9.6,2.8-12.8-1c-0.5-0.6-51.6-59.4-110.9-56.2
			c-32.6,1.8-62.3,22.3-88.4,60.9c-31.4,46.5-65.2,70.4-100.5,70.9C98.7,180.4,98.3,180.4,97.9,180.4"/>
		<path class="st0" d="M26.1,140.4c-1.8,0-3.7-0.6-5.3-1.7c-4.1-3-5-8.6-2-12.7c0.8-1.1,84.3-114.2,180.9-68.6
			C345.2,126.2,400,92,400.5,91.6c4.1-2.9,9.8-2,12.7,2.1c2.9,4.1,2,9.8-2.1,12.7c-2.4,1.8-61.7,41.8-219.1-32.5
			c-83.2-39.4-157.8,61.6-158.5,62.7C31.7,138.9,28.9,140.4,26.1,140.4"/>
		<path class="st0" d="M284,184.2c-18.1,0-37.8-4.2-58.7-14.5C99.6,107.9,30.7,139.1,30,139.4c-4.5,2.1-9.9,0.2-12.1-4.3
			s-0.3-9.9,4.2-12.1c3.1-1.5,76.8-35.6,211.1,30.3c97.6,47.9,162-54.8,164.7-59.2c2.6-4.3,8.2-5.6,12.5-3s5.6,8.2,3,12.5
			C412.9,104.5,363,184.2,284,184.2"/>
	</g>
	<g>
		<polygon class="st0" points="473.4,145.4 473.4,130.1 518.6,70.9 473.4,70.9 473.4,53.6 545.3,53.6 545.3,68 499.4,127.8 
			546.1,127.8 546.1,145.4 		"/>
		<path class="st0" d="M551.5,99.3c0-26.6,19.3-48,46.5-48c27.5,0,45,20.9,45,49.7v4.9h-70.6c1.5,13.7,11.8,25.2,29,25.2
			c9.1,0,19.5-3.6,26.2-10.2l9.1,13.1c-9.3,8.7-22.8,13.5-37.2,13.5C571.8,147.6,551.5,128.4,551.5,99.3 M597.8,67.6
			c-16.9,0-24.8,13.1-25.6,24.1h51.6C623.2,80.9,615.8,67.6,597.8,67.6"/>
		<path class="st0" d="M661.2,123.8V70.9H646V53.6h15.2v-25h19.9v25h18.6v17.3h-18.6v48c0,6.3,3,11,8.7,11c3.8,0,7.2-1.7,8.7-3.4
			l4.8,15.2c-3.6,3.2-9.5,5.9-18.6,5.9C669.2,147.6,661.2,139.2,661.2,123.8"/>
		<path class="st0" d="M758.2,145.4V70.9H743V53.6h15.2v-5.1c0-20.5,12.1-31.7,28.8-31.7c6.4,0,12,1.1,16.1,3.4l-4.4,15
			c-2.1-1.3-4.7-2.1-8-2.1c-8,0-12.7,5.1-12.7,15.4v5.1h18.6v17.3H778v74.4H758.2L758.2,145.4L758.2,145.4z"/>
		<g>
			<path class="st0" d="M809.5,30.1c0-6.9,5.5-12.3,12.3-12.3s12.3,5.5,12.3,12.3s-5.5,12.3-12.3,12.3S809.5,36.9,809.5,30.1"/>
			<rect x="811.8" y="53.6" class="st0" width="19.9" height="91.6"/>
		</g>
		<g>
			<path class="st0" d="M712.6,53.6h19.9v91.6h-19.9V53.6z"/>
			<path class="st0" d="M710.3,30.1c0-6.8,5.5-12.3,12.3-12.3s12.3,5.5,12.3,12.3s-5.5,12.3-12.3,12.3S710.3,36.9,710.3,30.1"/>
		</g>
	</g>
</g>
</svg>
