<?xml version="1.0" encoding="utf-8"?>
<!-- Generator: Adobe Illustrator 24.1.2, SVG Export Plug-In . SVG Version: 6.00 Build 0)  -->
<svg version="1.1" id="Layer_1" xmlns="http://www.w3.org/2000/svg" xmlns:xlink="http://www.w3.org/1999/xlink" x="0px" y="0px"
	 viewBox="0 0 336.2 85.4" style="enable-background:new 0 0 336.2 85.4;" xml:space="preserve">
<style type="text/css">
	.st0{opacity:0.5;}
	.st1{fill:#00053E;}
	.st2{fill:none;}
</style>
<g>
	<g class="st0">
		<rect x="150.4" y="3.6" class="st1" width="11.8" height="8"/>
		<path class="st1" d="M198.5,51v-6.6c-6.5-3.3-13.2-6.1-20.1-8.5v2.9c24.1,14.1,34.2,33.1,37.4,40.7c6.7,1.5,13.5,2.2,20.4,2.2
			c0.9,0,1.8,0,2.7,0c-5.7-13.4-17.5-23.7-29.8-31.3v0.7L198.5,51z"/>
		<path class="st1" d="M178.4,34.8c6.8,1.4,13.6,3.2,20.1,5.6v-5.8c-6.5-1.4-13.1-2.4-19.7-3C178.6,32.8,178.4,33.8,178.4,34.8z"/>
		<path class="st1" d="M239.9,48.7V51h-10.7v-7.1c-6.5-2.7-13.3-4.9-20.1-6.7v7.5c18.2,8.2,34.5,20,48,34.6
			c5.8-1.3,11.3-3.6,16.4-6.8C263.7,62.9,252.3,54.8,239.9,48.7z"/>
	</g>
	<g>
		<path class="st1" d="M29.3,6.6h14.3L69.5,54H56.1l-5.8-10.6H21.1L15.8,54H3.5L29.3,6.6z M46.2,35.6L35.7,15L25.1,35.6H46.2z"/>
		<path class="st1" d="M111.8,49.1c0,10.8-8.4,15-22.6,15c-11,0-19.4-2.7-19.8-10.8h10.7c0.1,3.2,3.9,4.9,8.9,4.9
			c7.8,0,12.1-3,12.1-9v-4.4H101c-3.2,4-9.3,5.8-14,5.8c-12.5,0-19.5-7.8-19.5-16.6c0-10.6,8.1-17.1,19.2-17.1
			c6.9,0,11.5,2.3,14.8,5.8l0.4-4.5H112c-0.1,1.8-0.3,5.8-0.3,8.2L111.8,49.1z M90,44.3c7.2,0,11.1-4.5,11.1-10.6S97.2,23.1,90,23.1
			s-11.1,4.5-11.1,10.6S82.8,44.3,90,44.3z"/>
		<path class="st1" d="M118,26.3c0-3.1-0.2-6-0.3-8.3h10.2c0.1,2,0.3,4,0.3,6.1h0.1c1.1-2.2,3.4-6.7,11.7-6.7c2.3,0,4.6,0.2,6.9,0.6
			v7.5c-0.7-0.1-1.5-0.2-2.2-0.3c-0.8-0.1-1.7-0.1-2.7-0.1c-8.6,0-13.3,3.5-13.3,12.5v13.3H118V26.3z"/>
		<path class="st1" d="M161.7,18v33H151V18L161.7,18z"/>
		<path class="st2" d="M178.4,35.1v0.8c6.9,2.4,13.6,5.2,20.1,8.5v-4c-6.5-2.3-13.3-4.2-20.1-5.6C178.4,34.9,178.4,35,178.4,35.1z"
			/>
		<path class="st2" d="M220.1,23.5c-5.6,0-11,3.6-11,11.6v2c6.8,1.8,13.5,4.1,20.1,6.7V33.6C229.2,25.4,225.2,23.5,220.1,23.5z"/>
		<path class="st2" d="M189.3,23.5c-4.7,0-9.2,2.6-10.6,8.2c6.6,0.6,13.2,1.6,19.7,3v-1.1C198.5,25.4,194.5,23.5,189.3,23.5z"/>
		<path class="st1" d="M223.2,16.8c-5.8,0-11.6,1.8-15.5,7.3c-2.9-4.7-8.3-7.3-15-7.3c-6.1,0-10.4,2-14.7,6.5c0-1.8-0.1-3.5-0.3-5.3
			h-10.3c0.1,2.4,0.3,5.6,0.3,8.1V51h10.7V35.1c0-0.1,0-0.2,0-0.3c0-1.1,0.1-2.1,0.4-3.2c1.3-5.6,5.9-8.2,10.6-8.2
			c5.2,0,9.2,1.9,9.2,10.1v17.4h10.7V35.1c0-8,5.4-11.6,11-11.6c5.1,0,9.1,1.9,9.1,10V51h10.7V31.7
			C239.9,19.4,229.8,16.8,223.2,16.8z"/>
		<path class="st1" d="M287,44.8c0,2.2,0.1,4,0.3,6.2h-9.8c-0.2-1.5-0.3-3-0.3-4.5c-4.4,4.1-9.9,5.8-16.7,5.8
			c-12.4,0-16.6-5.4-16.6-10.1c0-10.3,10.5-12.1,24-12.1h8.5c0-5.9-4.4-7.4-9.8-7.4s-8.1,2-8.6,4.6h-11.1
			c1.1-8.5,10.8-10.5,19.9-10.5c9.9,0,20.1,2.6,20.1,14.2L287,44.8z M267.6,36c-8.1,0-12.6,1.6-12.6,5.5c0,2.2,2,5.2,8.1,5.2
			c5.3,0,13.2-2.9,13.3-10.8L267.6,36L267.6,36z"/>
		<path class="st1" d="M321.3,29.6c-0.4-4.4-3.7-6.9-8.5-6.9c-5.6,0-10.3,3.7-10.3,12c0,6.4,2.7,11.7,10.2,11.7c5,0,8.4-2.2,8.9-6.8
			h11.1c-0.1,8.7-9.5,12.7-20,12.7c-13.4,0-21.4-6.4-21.4-17.7c0-11.6,8.5-17.7,21-17.7c14,0,19.5,5.7,20,12.8L321.3,29.6z"/>
		<g>
			<path class="st1" d="M172.7,9h-3.2l-0.8,1.9h-1l3-6.6h1.1l3,6.6h-1.1L172.7,9z M171.1,5.3l-1.2,2.9h2.5L171.1,5.3z"/>
			<path class="st1" d="M179.3,7.4h3v3.5h-0.7l-0.1-0.9c-0.6,0.8-1.5,1.2-2.5,1.1c-1.8,0.2-3.3-1.1-3.5-2.9c0-0.1,0-0.3,0-0.4
				c-0.2-1.8,1.2-3.4,3-3.6c0.1,0,0.3,0,0.4,0c1.4,0,2.9,0.4,3.3,2.2h-1c-0.3-1-1.2-1.5-2.2-1.4c-1.3-0.1-2.4,1-2.5,2.3
				c0,0.1,0,0.2,0,0.3c-0.1,1.3,0.8,2.4,2.1,2.6c0.2,0,0.3,0,0.5,0c1.2,0.1,2.3-0.8,2.5-2h-2.2L179.3,7.4z"/>
			<path class="st1" d="M184.1,4.4h4.1c0.9-0.1,1.7,0.6,1.8,1.5c0,0.1,0,0.2,0,0.3c0.1,0.7-0.4,1.4-1.1,1.6l0,0
				c0.6,0.1,0.9,0.6,1,1.4c0.1,1.2,0.1,1.5,0.3,1.8h-1c-0.1-0.2-0.1-0.5-0.2-1.2c-0.1-1.2-0.5-1.5-1.3-1.5h-2.6v2.8h-1V4.4z
				 M187.8,7.3c0.9,0,1.2-0.6,1.2-1c0-0.6-0.4-1-1.2-1h-2.7v2H187.8z"/>
			<path class="st1" d="M191.5,4.4h1V11h-1V4.4z"/>
			<path class="st1" d="M204.4,4.4h1.4V11h-1V5.5l0,0l-2.6,5.4h-0.9l-2.5-5.3l0,0v5.3h-1V4.4h1.4l2.6,5.4L204.4,4.4z"/>
			<path class="st1" d="M211.9,9h-3.2l-0.8,1.9h-1l3-6.6h1.1l3,6.6h-1.1L211.9,9z M210.3,5.3l-1.2,2.9h2.5L210.3,5.3z"/>
			<path class="st1" d="M220.3,6.7c-0.2-1.1-1.2-1.8-2.2-1.7c-1.3-0.1-2.5,0.8-2.6,2.1c0,0.2,0,0.4,0,0.5c-0.1,1.3,0.8,2.4,2.1,2.5
				c0.1,0,0.2,0,0.4,0c1.1,0.1,2.1-0.7,2.3-1.8h1c-0.2,1.6-1.7,2.8-3.3,2.7c-1.8,0.2-3.3-1.2-3.5-2.9c0-0.2,0-0.4,0-0.6
				c-0.1-1.8,1.3-3.3,3.1-3.4c0.1,0,0.3,0,0.4,0c1.3,0,3.1,0.6,3.3,2.5L220.3,6.7z"/>
			<path class="st1" d="M228.2,7.8h-4.5v3.1h-1V4.4h1V7h4.5V4.4h1V11h-1V7.8z"/>
			<path class="st1" d="M231.1,4.4h1V11h-1V4.4z"/>
			<path class="st1" d="M234.9,5.7L234.9,5.7v5.2h-1V4.4h1.1l4.2,5.2l0,0V4.4h1V11h-1.1L234.9,5.7z"/>
			<path class="st1" d="M242.1,4.4h5.3v0.9h-4.3v1.9h4.2V8h-4.2v2.1h4.4v0.8h-5.4V4.4z"/>
			<path class="st1" d="M249,4.4h4.1c0.9-0.1,1.7,0.6,1.8,1.5c0,0.1,0,0.2,0,0.3c0.1,0.7-0.4,1.4-1.1,1.6l0,0c0.6,0.1,0.9,0.6,1,1.4
				c0.1,1.2,0.1,1.5,0.3,1.8h-1c-0.2-0.2-0.2-0.5-0.2-1.2c-0.1-1.2-0.5-1.5-1.3-1.5H250v2.8h-1V4.4z M252.7,7.3c1,0,1.2-0.6,1.2-1
				c0-0.6-0.4-1-1.2-1h-2.8v2H252.7z"/>
			<path class="st1" d="M261.1,4.4h1.2l-2.9,3.8V11h-1V8.2l-2.9-3.8h1.2l2.1,3L261.1,4.4z"/>
			<path class="st1" d="M267.2,8.8c0,1.2,1.1,1.5,2.1,1.5s1.8-0.4,1.8-1.1c0-0.7-0.5-0.8-1.2-1L268.4,8c-0.8-0.1-2-0.4-2-1.7
				s1-2,2.6-2c1.3,0,2.7,0.5,2.8,2.1h-1c-0.1-0.5-0.4-1.2-2-1.2c-0.7,0-1.5,0.3-1.5,1.1c0,0.4,0.3,0.7,1.1,0.9l1.6,0.3
				c0.5,0.1,2,0.3,2,1.7c0,1.7-1.5,2.2-2.8,2.2c-1.5,0-3-0.5-3-2.3L267.2,8.8z"/>
			<path class="st1" d="M273.3,4.4h3.4c1.4,0,2.2,0.7,2.2,1.9c0.1,1.1-0.7,2-1.8,2.1c-0.1,0-0.2,0-0.3,0h-2.5V11h-1L273.3,4.4z
				 M276.6,7.5c1,0,1.3-0.5,1.3-1.2c0-0.6-0.4-1-0.9-1.1c-0.1,0-0.1,0-0.2,0h-2.5v2.2L276.6,7.5L276.6,7.5z"/>
			<path class="st1" d="M280.3,4.4h5.3v0.9h-4.3v1.9h4.2V8h-4.2v2.1h4.4v0.8h-5.4V4.4z"/>
			<path class="st1" d="M292.5,6.7c-0.2-1.1-1.2-1.8-2.2-1.7c-1.3-0.1-2.4,0.9-2.6,2.2c0,0.2,0,0.3,0,0.5c-0.1,1.3,0.8,2.4,2.1,2.5
				c0.1,0,0.2,0,0.4,0c1.1,0.1,2.1-0.7,2.3-1.8h1c-0.2,1.6-1.7,2.8-3.3,2.7c-1.8,0.1-3.3-1.2-3.5-3c0-0.2,0-0.4,0-0.6
				c-0.1-1.8,1.3-3.3,3.1-3.4c0.1,0,0.3,0,0.4,0c1.3,0,3.1,0.6,3.3,2.5L292.5,6.7z"/>
			<path class="st1" d="M295.1,4.4h1V11h-1V4.4z"/>
			<path class="st1" d="M302.3,9h-3.2l-0.8,1.9h-1l3-6.6h1.1l3,6.6h-1.2L302.3,9z M300.6,5.3l-1.2,2.9h2.5L300.6,5.3z"/>
			<path class="st1" d="M305.3,4.4h1v5.7h4v0.8h-5V4.4z"/>
			<path class="st1" d="M311.5,4.4h1V11h-1V4.4z"/>
			<path class="st1" d="M314.7,8.8c0,1.2,1.1,1.5,2.1,1.5s1.8-0.4,1.8-1.1c0-0.7-0.5-0.8-1.2-1L315.9,8c-0.8-0.1-2-0.4-2-1.7
				s1-2,2.6-2c1.3,0,2.7,0.5,2.8,2.1h-1c-0.1-0.5-0.4-1.2-2-1.2c-0.7,0-1.5,0.3-1.5,1.1c0,0.4,0.3,0.7,1.1,0.9l1.6,0.3
				c0.5,0.1,2,0.3,2,1.7c0,1.7-1.5,2.2-2.8,2.2c-1.5,0-3-0.5-3-2.3L314.7,8.8z"/>
			<path class="st1" d="M322.6,5.2h-2.5V4.4h5.9v0.9h-2.5V11h-1L322.6,5.2z"/>
			<path class="st1" d="M327.6,8.8c0,1.2,1.1,1.5,2.1,1.5s1.8-0.4,1.8-1.1c0-0.7-0.5-0.8-1.2-1L328.8,8c-0.8-0.1-2-0.4-2-1.7
				s0.9-2,2.6-2c1.3,0,2.7,0.5,2.8,2.1h-1c-0.1-0.5-0.4-1.2-2-1.2c-0.7,0-1.5,0.3-1.5,1.1c0,0.4,0.3,0.7,1.1,0.9l1.6,0.3
				c0.5,0.1,2,0.3,2,1.7c0,1.7-1.5,2.2-2.8,2.2c-1.5,0-3-0.5-3-2.3L327.6,8.8z"/>
		</g>
	</g>
</g>
</svg>
