<?xml version="1.0" encoding="utf-8"?>
<!-- Generator: Adobe Illustrator 24.2.0, SVG Export Plug-In . SVG Version: 6.00 Build 0)  -->
<svg version="1.1" id="Layer_1" xmlns="http://www.w3.org/2000/svg" xmlns:xlink="http://www.w3.org/1999/xlink" x="0px" y="0px"
	 viewBox="0 0 336.2 85.4" style="enable-background:new 0 0 336.2 85.4;" xml:space="preserve">
<style type="text/css">
	.st0{fill:#00053E;}
</style>
<g>
	<g>
		<path class="st0" d="M20.8,10.1c0.6-1.5,0.8-1.7,1.1-1.7c0.5,0,0.6,0.6,1.1,1.6c0.8,1.9,8.1,20,10.9,26.7c1.7,3.9,2.9,4.5,3.9,4.8
			c0.7,0.2,1.3,0.3,1.8,0.3c0.3,0,0.6,0.1,0.6,0.4s-0.5,0.4-1,0.4c-0.7,0-4,0-7.2-0.1c-0.9-0.1-1.6-0.1-1.6-0.3
			c0-0.2,0.1-0.2,0.3-0.3c0.3-0.1,0.7-0.5,0.4-1.2L27,30.5c-0.1-0.2-0.2-0.3-0.4-0.3H16.1c-0.2,0-0.4,0.1-0.5,0.4l-2.6,7
			c-0.4,1.1-0.7,2.2-0.7,2.9c0,0.9,0.8,1.2,1.6,1.2h0.4c0.4,0,0.5,0.2,0.5,0.4c0,0.3-0.3,0.4-0.7,0.4c-1.1,0-3.6-0.2-4.1-0.2
			c-0.5,0-2.7,0.2-4.6,0.2c-0.6,0-0.9-0.1-0.9-0.4c0-0.2,0.2-0.4,0.4-0.4c0.3,0,1-0.1,1.3-0.1c2.1-0.3,2.9-1.8,3.8-4L20.8,10.1z
			 M25.9,28.4c0.2,0,0.2-0.1,0.2-0.3L21.5,16c-0.3-0.7-0.5-0.7-0.8,0l-4.2,12.1c-0.1,0.2,0,0.3,0.2,0.3H25.9z"/>
		<path class="st0" d="M48.1,36.5c0.1,3.6,0.5,4.7,1.8,5c0.8,0.2,1.9,0.3,2.3,0.3c0.2,0,0.4,0.2,0.4,0.4c0,0.3-0.3,0.4-0.8,0.4
			c-2.6,0-4.4-0.2-4.8-0.2s-2.3,0.2-4.4,0.2c-0.5,0-0.7-0.1-0.7-0.4c0-0.2,0.2-0.4,0.4-0.4c0.4,0,1.2-0.1,1.9-0.3
			c1.1-0.3,1.3-1.5,1.3-5.5V10.8c0-1.8,0.3-2.2,0.6-2.2c0.5,0,1.3,0.9,1.8,1.3c0.7,0.7,7.4,7.8,14.4,15c4.5,4.7,9.4,9.9,10.8,11.3
			l-0.5-22.1c-0.1-2.8-0.3-3.8-1.7-4.1c-0.8-0.2-1.9-0.2-2.2-0.2c-0.3,0-0.4-0.3-0.4-0.4c0-0.3,0.4-0.3,0.9-0.3
			c2.1,0,4.2,0.1,4.8,0.1c0.5,0,2-0.1,3.9-0.1c0.5,0,0.8,0.1,0.8,0.3c0,0.2-0.2,0.4-0.5,0.4c-0.2,0-0.6,0-1.1,0.1
			c-1.5,0.3-1.6,1.2-1.6,3.8l-0.1,25.8c0,2.9-0.1,3.2-0.4,3.2c-0.5,0-0.9-0.4-3.5-2.7c-0.5-0.4-7-6.9-11.9-11.9
			C54.1,22.7,49,17.3,47.6,15.7L48.1,36.5z"/>
		<path class="st0" d="M110,31.3c0-3.6-0.1-4.1-2-4.5c-0.4-0.1-1.1-0.1-1.6-0.1c-0.2,0-0.4-0.2-0.4-0.4c0-0.3,0.2-0.4,0.7-0.4
			c2.1,0,5.1,0.1,5.4,0.1c0.2,0,3.1-0.1,4.5-0.1c0.5,0,0.7,0.1,0.7,0.4c0,0.2-0.2,0.4-0.4,0.4c-0.3,0-0.6,0-1.1,0.1
			c-1.2,0.2-1.6,0.9-1.7,2.4c-0.1,1.4-0.1,2.7-0.1,4.6v4.9c0,2-0.1,2.1-0.6,2.4c-2.9,1.5-7,2-9.7,2c-3.5,0-9.9-0.4-15-4.7
			c-2.8-2.3-5.4-7-5.4-12.5c0-7,3.6-12,7.6-14.4c4.1-2.5,8.6-2.8,12.1-2.8c2.9,0,6.1,0.5,7,0.7c0.9,0.2,2.5,0.5,3.7,0.5
			c0.5,0,0.6,0.2,0.6,0.4c0,0.6-0.3,1.8-0.3,6.2c0,0.7-0.2,0.9-0.5,0.9c-0.3,0-0.3-0.3-0.3-0.7c-0.1-0.6-0.3-1.9-1-2.9
			c-1.1-1.7-4.6-3.4-10.5-3.4c-2.7,0-6.1,0.2-9.5,2.8c-2.6,2-4.5,6-4.5,11.1c0,6.2,3.2,10.7,4.8,12.2c3.6,3.4,7.5,4.6,11.7,4.6
			c1.6,0,3.7-0.2,4.9-0.8c0.6-0.3,0.9-0.5,0.9-1.3L110,31.3L110,31.3z"/>
		<path class="st0" d="M125.5,21.9c0-6.8,0-8.1-0.1-9.5c-0.1-1.4-0.4-2.2-1.9-2.4c-0.4-0.1-1.1-0.1-1.6-0.1c-0.2,0-0.4-0.2-0.4-0.4
			c0-0.3,0.2-0.4,0.7-0.4c2.1,0,4.8,0.1,5.2,0.1s3.3-0.1,4.6-0.1c0.5,0,0.8,0.1,0.8,0.4c0,0.2-0.2,0.4-0.4,0.4c-0.3,0-0.6,0-1.1,0.1
			c-1.2,0.2-1.5,1-1.6,2.4c-0.1,1.4-0.1,2.6-0.1,9.5v6.2c0,6.4,1.4,9,3.4,10.8c2.2,2,4.2,2.4,6.8,2.4c2.8,0,5.5-1.2,7-3.1
			c2.1-2.5,2.6-6.2,2.6-10.7V22c0-6.8-0.1-8.1-0.1-9.5c-0.1-1.4-0.3-2.2-1.8-2.4c-0.4-0.1-1.1-0.1-1.6-0.1c-0.2,0-0.4-0.2-0.4-0.4
			c0-0.3,0.2-0.4,0.7-0.4c2,0,4.7,0.1,4.9,0.1c0.3,0,2.5-0.1,3.8-0.1c0.5,0,0.7,0.1,0.7,0.4c0,0.2-0.2,0.4-0.4,0.4
			c-0.3,0-0.6,0-1.1,0.1c-1.2,0.3-1.5,1-1.6,2.4c-0.1,1.4-0.1,2.6-0.1,9.5v4.7c0,4.8-0.6,10.1-4.2,13.2c-3.3,2.8-6.8,3.2-9.5,3.2
			c-1.5,0-6.3-0.1-9.5-3.1c-2.2-2.1-4-5.1-4-11.5L125.5,21.9L125.5,21.9L125.5,21.9z"/>
		<path class="st0" d="M169.9,29.8c0,6.5,0.1,9.1,0.9,9.9c0.7,0.7,2.5,1,6.1,1c2.4,0,4.4-0.1,5.5-1.3c0.6-0.7,0.9-1.6,1.1-2.5
			c0.1-0.3,0.2-0.6,0.5-0.6c0.2,0,0.3,0.2,0.3,0.7c0,0.5-0.3,3.1-0.7,4.4c-0.3,1-0.5,1.2-2.9,1.2c-3.3,0-5.8-0.1-7.9-0.2
			c-2.1-0.1-3.6-0.1-5-0.1c-0.2,0-1,0-1.9,0.1c-0.9,0.1-1.9,0.1-2.6,0.1c-0.5,0-0.7-0.1-0.7-0.4c0-0.2,0.1-0.4,0.4-0.4
			c0.4,0,1-0.1,1.4-0.2c0.9-0.2,1-1,1.2-2.3c0.3-1.8,0.3-5.3,0.3-9.5v-7.8c0-6.8,0-8.1-0.1-9.5c-0.1-1.5-0.4-2.2-1.9-2.4
			c-0.4-0.1-1.1-0.1-1.6-0.1c-0.2,0-0.4-0.2-0.4-0.4c0-0.3,0.2-0.4,0.7-0.4c2.1,0,4.9,0.1,5.2,0.1c0.2,0,3.6-0.1,5-0.1
			c0.5,0,0.7,0.1,0.7,0.4c0,0.2-0.2,0.3-0.4,0.3c-0.3,0-1,0.1-1.5,0.1c-1.3,0.3-1.6,0.9-1.7,2.5c-0.1,1.4-0.1,2.6-0.1,9.5
			L169.9,29.8L169.9,29.8L169.9,29.8z"/>
		<path class="st0" d="M197.6,29.8c0,6.5,0.1,9.1,0.9,9.9c0.7,0.7,2.5,1,6.1,1c2.4,0,4.4-0.1,5.5-1.3c0.6-0.7,0.9-1.6,1.1-2.5
			c0.1-0.3,0.2-0.6,0.5-0.6c0.2,0,0.3,0.2,0.3,0.7c0,0.5-0.3,3.1-0.7,4.4c-0.3,1-0.5,1.2-2.9,1.2c-3.3,0-5.8-0.1-7.9-0.2
			c-2.1-0.1-3.6-0.1-5-0.1c-0.2,0-1,0-1.9,0.1c-0.9,0.1-1.9,0.1-2.6,0.1c-0.5,0-0.7-0.1-0.7-0.4c0-0.2,0.1-0.4,0.4-0.4
			c0.4,0,1-0.1,1.4-0.2c0.9-0.2,1-1,1.2-2.3c0.3-1.8,0.3-5.3,0.3-9.5v-7.8c0-6.8,0-8.1-0.1-9.5c-0.1-1.5-0.4-2.2-1.9-2.4
			c-0.4-0.1-1.1-0.1-1.6-0.1c-0.2,0-0.4-0.2-0.4-0.4c0-0.3,0.2-0.4,0.7-0.4c2.1,0,4.9,0.1,5.2,0.1c0.2,0,3.6-0.1,5-0.1
			c0.5,0,0.7,0.1,0.7,0.4c0,0.2-0.2,0.3-0.4,0.3c-0.3,0-1,0.1-1.5,0.1c-1.3,0.3-1.6,0.9-1.7,2.5c-0.1,1.4-0.1,2.6-0.1,9.5
			L197.6,29.8L197.6,29.8L197.6,29.8z"/>
		<path class="st0" d="M232.9,8.6c10.3,0,18,6.3,18,16.5c0,9.8-7.3,18-18.3,18c-12.5,0-17.8-9.4-17.8-17.3
			C214.8,18.7,220.3,8.6,232.9,8.6z M233.9,41.2c4.1,0,12.3-2.2,12.3-14.9c0-10.6-6.4-16.1-13.6-16.1c-7.6,0-13.1,4.8-13.1,14.3
			C219.6,34.8,225.7,41.2,233.9,41.2z"/>
		<path class="st0" d="M262.4,36.5c0.1,3.6,0.5,4.7,1.8,5c0.8,0.2,1.9,0.3,2.3,0.3c0.2,0,0.4,0.2,0.4,0.4c0,0.3-0.3,0.4-0.8,0.4
			c-2.6,0-4.4-0.2-4.8-0.2c-0.4,0-2.3,0.2-4.4,0.2c-0.5,0-0.7-0.1-0.7-0.4c0-0.2,0.2-0.4,0.4-0.4c0.4,0,1.2-0.1,1.9-0.3
			c1.1-0.3,1.3-1.5,1.3-5.5V10.8c0-1.8,0.3-2.2,0.6-2.2c0.5,0,1.3,0.9,1.8,1.3c0.7,0.7,7.4,7.8,14.4,15c4.5,4.7,9.4,9.9,10.8,11.3
			l-0.5-22.1c-0.1-2.8-0.3-3.8-1.7-4.1c-0.8-0.2-1.9-0.2-2.2-0.2c-0.3,0-0.4-0.3-0.4-0.4c0-0.3,0.4-0.3,0.9-0.3
			c2.1,0,4.2,0.1,4.8,0.1s2-0.1,3.9-0.1c0.5,0,0.8,0.1,0.8,0.3c0,0.2-0.2,0.4-0.5,0.4c-0.2,0-0.6,0-1.1,0.1
			c-1.5,0.3-1.6,1.2-1.6,3.8l-0.1,25.8c0,2.9-0.1,3.2-0.4,3.2c-0.5,0-0.9-0.4-3.5-2.7c-0.5-0.4-7-6.9-11.9-11.9
			c-5.3-5.5-10.4-10.9-11.8-12.5L262.4,36.5z"/>
		<path class="st0" d="M324.3,31.3c0-3.6-0.1-4.1-2-4.5c-0.4-0.1-1.1-0.1-1.6-0.1c-0.2,0-0.4-0.2-0.4-0.4c0-0.3,0.2-0.4,0.7-0.4
			c2.1,0,5.1,0.1,5.4,0.1c0.2,0,3.1-0.1,4.5-0.1c0.5,0,0.7,0.1,0.7,0.4c0,0.2-0.2,0.4-0.4,0.4c-0.3,0-0.6,0-1.1,0.1
			c-1.2,0.2-1.6,0.9-1.7,2.4c-0.1,1.4-0.1,2.7-0.1,4.6v4.9c0,2-0.1,2.1-0.6,2.4c-2.9,1.5-7,2-9.7,2c-3.5,0-9.9-0.4-15-4.7
			c-2.8-2.3-5.4-7-5.4-12.5c0-7,3.6-12,7.6-14.4c4.1-2.5,8.6-2.8,12.1-2.8c2.9,0,6.1,0.5,7,0.7c0.9,0.2,2.5,0.5,3.7,0.5
			c0.5,0,0.6,0.2,0.6,0.4c0,0.6-0.3,1.8-0.3,6.2c0,0.7-0.2,0.9-0.5,0.9c-0.3,0-0.3-0.3-0.3-0.7c-0.1-0.6-0.3-1.9-1-2.9
			c-1.1-1.7-4.6-3.4-10.5-3.4c-2.7,0-6.1,0.2-9.5,2.8c-2.6,2-4.5,6-4.5,11.1c0,6.2,3.2,10.7,4.8,12.2c3.6,3.4,7.5,4.6,11.7,4.6
			c1.6,0,3.7-0.2,4.9-0.8c0.6-0.3,0.9-0.5,0.9-1.3L324.3,31.3L324.3,31.3z"/>
	</g>
	<g>
		<path class="st0" d="M100.2,74.1c1.2-2.8,4.1-10.2,4.5-11.8c0.1-0.3,0.2-0.6,0.2-0.8c0-0.2-0.1-0.4-0.3-0.5
			c-0.3-0.1-0.6-0.1-0.8-0.1c-0.1,0-0.2,0-0.2-0.1c0-0.1,0.1-0.2,0.5-0.2c0.9,0,1.8,0.1,2.1,0.1c0.1,0,1-0.1,1.6-0.1
			c0.2,0,0.4,0,0.4,0.1c0,0.1-0.1,0.1-0.2,0.1c-0.1,0-0.6,0-1,0.3c-0.3,0.2-0.6,0.5-1.2,2c-0.2,0.6-1.3,3.1-2.4,5.7
			c-1.3,3.1-2.2,5.4-2.7,6.4c-0.6,1.3-0.7,1.6-0.9,1.6c-0.3,0-0.4-0.3-0.8-1.3l-5.2-13c-0.5-1.2-0.8-1.4-1.5-1.6
			C92,61,91.6,61,91.5,61c-0.1,0-0.2-0.1-0.2-0.1c0-0.1,0.2-0.1,0.5-0.1c1,0,2.2,0.1,2.5,0.1c0.2,0,1.2-0.1,2-0.1
			c0.4,0,0.6,0,0.6,0.1c0,0.1-0.1,0.1-0.2,0.1c-0.2,0-0.6,0-0.8,0.1c-0.2,0.1-0.3,0.3-0.3,0.4c0,0.3,0.3,0.9,0.6,1.8L100.2,74.1z"/>
		<path class="st0" d="M117.4,70.6c0,2,0,3.7,0.1,4.6c0.1,0.6,0.2,1.1,0.8,1.2c0.3,0,0.8,0.1,1,0.1c0.1,0,0.2,0.1,0.2,0.1
			c0,0.1-0.1,0.2-0.3,0.2c-1.2,0-2.5-0.1-2.6-0.1s-1.4,0.1-2.1,0.1c-0.2,0-0.3,0-0.3-0.2c0-0.1,0-0.1,0.2-0.1c0.2,0,0.4,0,0.6-0.1
			c0.4-0.1,0.5-0.5,0.6-1.2c0.1-0.9,0.1-2.6,0.1-4.6v-3.7c0-3.3,0-3.9,0-4.6c0-0.7-0.3-1.1-0.7-1.2c-0.2-0.1-0.5-0.1-0.7-0.1
			c-0.1,0-0.2,0-0.2-0.1c0-0.1,0.1-0.2,0.3-0.2c0.7,0,2,0.1,2.1,0.1s1.4-0.1,2.1-0.1c0.2,0,0.3,0,0.3,0.2c0,0.1-0.1,0.1-0.2,0.1
			c-0.1,0-0.3,0-0.5,0.1c-0.6,0.1-0.7,0.5-0.8,1.2c0,0.7,0,1.3,0,4.6L117.4,70.6L117.4,70.6z"/>
		<path class="st0" d="M129.7,73.9c0,1.7,0.2,2.3,0.8,2.5c0.4,0.1,0.9,0.1,1.1,0.1c0.1,0,0.2,0,0.2,0.1c0,0.1-0.1,0.2-0.4,0.2
			c-1.2,0-2.1-0.1-2.2-0.1c-0.2,0-1.1,0.1-2,0.1c-0.2,0-0.3,0-0.3-0.2c0-0.1,0.1-0.1,0.2-0.1c0.2,0,0.5,0,0.9-0.1
			c0.5-0.1,0.6-0.8,0.6-2.7l0-12.1c0-0.8,0.1-1.1,0.2-1.1s0.5,0.5,0.7,0.7c0.3,0.4,3.5,3.8,6.7,7.3c2.1,2.3,4.4,4.8,5.1,5.5
			L141,63.1c0-1.4-0.2-1.8-0.8-2c-0.4-0.1-0.9-0.1-1-0.1c-0.1,0-0.2-0.1-0.2-0.1c0-0.1,0.2-0.1,0.4-0.1c1,0,2,0.1,2.2,0.1
			c0.2,0,0.9-0.1,1.8-0.1c0.2,0,0.4,0,0.4,0.1c0,0.1-0.1,0.1-0.2,0.1c-0.1,0-0.3,0-0.5,0.1c-0.7,0.1-0.8,0.6-0.8,1.9l0,12.4
			c0,1.4,0,1.5-0.2,1.5c-0.2,0-0.4-0.2-1.5-1.4c-0.2-0.2-3.3-3.3-5.5-5.7c-2.5-2.6-4.9-5.3-5.5-6.1L129.7,73.9z"/>
		<path class="st0" d="M153.4,66.9c0-3.3,0-3.9,0-4.6c0-0.7-0.2-1.1-0.9-1.2c-0.2,0-0.5-0.1-0.7-0.1c-0.1,0-0.2,0-0.2-0.1
			c0-0.1,0.1-0.2,0.3-0.2c0.5,0,1.1,0,1.5,0l0.9,0c0.1,0,4.4,0,4.9,0c0.4,0,0.7-0.1,0.9-0.1c0.1,0,0.2-0.1,0.3-0.1
			c0.1,0,0.1,0.1,0.1,0.2c0,0.1-0.1,0.4-0.2,1c0,0.2-0.1,1.1-0.1,1.4c0,0.1-0.1,0.2-0.1,0.2c-0.1,0-0.2-0.1-0.2-0.3
			c0-0.1,0-0.5-0.1-0.8c-0.1-0.3-0.4-0.6-1.5-0.7c-0.4,0-2.7-0.1-2.9-0.1c-0.1,0-0.1,0.1-0.1,0.2v5.8c0,0.1,0,0.2,0.1,0.2
			c0.3,0,2.9,0,3.4,0c0.5,0,0.8-0.1,1-0.3c0.1-0.2,0.2-0.3,0.3-0.3c0.1,0,0.1,0,0.1,0.2s-0.1,0.5-0.2,1.2c0,0.4-0.1,1.2-0.1,1.4
			c0,0.2,0,0.4-0.1,0.4c-0.1,0-0.1-0.1-0.1-0.2c0-0.2,0-0.4-0.1-0.7c-0.1-0.3-0.3-0.7-1.1-0.7c-0.6-0.1-2.7-0.1-3-0.1
			c-0.1,0-0.1,0.1-0.1,0.1v1.9c0,0.7,0,3.2,0,3.6c0.1,1.5,0.4,1.7,2.5,1.7c0.5,0,1.5,0,2-0.2s0.8-0.7,1-1.5c0-0.2,0.1-0.3,0.2-0.3
			c0.1,0,0.1,0.2,0.1,0.3c0,0.2-0.2,1.6-0.3,2.1c-0.1,0.5-0.3,0.5-1.1,0.5c-1.6,0-2.7,0-3.6-0.1c-0.8,0-1.3-0.1-1.6-0.1
			c0,0-0.4,0-0.9,0c-0.4,0-0.9,0-1.2,0c-0.2,0-0.3,0-0.3-0.2c0-0.1,0-0.1,0.2-0.1c0.2,0,0.4,0,0.6-0.1c0.4-0.1,0.5-0.5,0.6-1.2
			c0.1-0.9,0.1-2.6,0.1-4.6L153.4,66.9L153.4,66.9z"/>
		<path class="st0" d="M173.5,71.2c0-1.1-0.2-1.6-0.5-2.2c-0.1-0.3-3-5-3.7-6.1c-0.5-0.8-1.1-1.3-1.4-1.6c-0.3-0.2-0.7-0.3-0.9-0.3
			c-0.1,0-0.2,0-0.2-0.1c0-0.1,0.1-0.1,0.3-0.1c0.4,0,2,0.1,2.1,0.1c0.1,0,1-0.1,1.8-0.1c0.2,0,0.3,0.1,0.3,0.1
			c0,0.1-0.1,0.1-0.3,0.2c-0.2,0.1-0.3,0.2-0.3,0.4c0,0.3,0.1,0.5,0.3,0.8c0.3,0.6,3.5,6.1,3.9,6.7c0.4-0.9,3.1-5.5,3.5-6.2
			c0.3-0.4,0.4-0.8,0.4-1.1c0-0.3-0.1-0.5-0.3-0.6c-0.2-0.1-0.3-0.1-0.3-0.2c0-0.1,0.1-0.1,0.3-0.1c0.5,0,1.2,0.1,1.4,0.1
			c0.1,0,1.6-0.1,2.1-0.1c0.1,0,0.3,0,0.3,0.1c0,0.1-0.1,0.2-0.3,0.2c-0.2,0-0.6,0.1-1,0.3c-0.4,0.3-0.7,0.5-1.1,1.1
			c-0.7,0.9-3.7,5.8-4,6.7c-0.3,0.8-0.3,1.4-0.3,2.1v1.8c0,0.3,0,1.2,0.1,2.1c0,0.6,0.2,1.1,0.9,1.2c0.3,0,0.8,0.1,1,0.1
			c0.1,0,0.2,0.1,0.2,0.1c0,0.1-0.1,0.2-0.3,0.2c-1.2,0-2.5-0.1-2.6-0.1c-0.1,0-1.4,0.1-2.1,0.1c-0.2,0-0.3,0-0.3-0.2
			c0-0.1,0-0.1,0.2-0.1c0.2,0,0.4,0,0.6-0.1c0.4-0.1,0.6-0.5,0.7-1.2c0.1-0.9,0.1-1.8,0.1-2.1L173.5,71.2L173.5,71.2L173.5,71.2z"/>
		<path class="st0" d="M191.3,61.3c0.3-0.7,0.3-0.8,0.5-0.8s0.2,0.1,0.5,0.8c0.3,0.8,3.6,9.6,4.9,12.8c0.8,1.9,1.4,2.2,1.8,2.4
			c0.3,0.1,0.6,0.1,0.9,0.1c0.1,0,0.2,0,0.2,0.1c0,0.1-0.2,0.2-0.4,0.2c-0.3,0-1.9,0-3.3,0c-0.4,0-0.6,0-0.6-0.1
			c0-0.1,0.1-0.1,0.1-0.1c0.1,0,0.3-0.2,0.1-0.6l-2-5.2c0-0.1-0.1-0.1-0.2-0.1h-4.6c-0.1,0-0.2,0.1-0.2,0.2l-1.3,3.7
			c-0.2,0.5-0.3,1-0.3,1.4c0,0.4,0.4,0.6,0.8,0.6h0.2c0.1,0,0.2,0,0.2,0.1c0,0.1-0.1,0.2-0.3,0.2c-0.5,0-1.4-0.1-1.6-0.1
			c-0.2,0-1.4,0.1-2.4,0.1c-0.3,0-0.4,0-0.4-0.2c0-0.1,0.1-0.1,0.2-0.1c0.1,0,0.4,0,0.6,0c1-0.1,1.4-0.9,1.8-2L191.3,61.3z
			 M193.5,69.7c0.1,0,0.1-0.1,0.1-0.1l-2-5.7c-0.1-0.3-0.2-0.3-0.3,0l-1.9,5.7c0,0.1,0,0.1,0.1,0.1H193.5z"/>
		<path class="st0" d="M207.3,66.9c0-3.3,0-3.9,0-4.6c0-0.7-0.2-1.1-0.9-1.2c-0.2,0-0.5-0.1-0.7-0.1c-0.1,0-0.2,0-0.2-0.1
			c0-0.1,0.1-0.2,0.3-0.2c1,0,2.3,0.1,2.4,0.1c0.2,0,1.8-0.1,2.5-0.1c1.3,0,2.7,0.1,3.9,0.9c0.5,0.4,1.5,1.4,1.5,2.9
			c0,1.6-0.7,3.1-2.6,4.9c1.7,2.2,3.2,4.1,4.4,5.4c1.1,1.2,2.1,1.4,2.6,1.5c0.4,0.1,0.7,0.1,0.8,0.1c0.1,0,0.2,0.1,0.2,0.1
			c0,0.1-0.1,0.2-0.5,0.2h-1.5c-1.2,0-1.7-0.1-2.3-0.4c-0.9-0.5-1.6-1.5-2.9-3.1c-0.9-1.2-1.9-2.6-2.3-3.1c-0.1-0.1-0.1-0.1-0.3-0.1
			l-2.6,0c-0.1,0-0.1,0.1-0.1,0.2v0.5c0,2,0,3.7,0.1,4.6c0.1,0.6,0.2,1.1,0.8,1.2c0.3,0,0.8,0.1,1,0.1c0.1,0,0.2,0.1,0.2,0.1
			c0,0.1-0.1,0.2-0.3,0.2c-1.2,0-2.5-0.1-2.6-0.1c0,0-1.4,0.1-2,0.1c-0.2,0-0.3,0-0.3-0.2c0-0.1,0-0.1,0.2-0.1c0.2,0,0.4,0,0.6-0.1
			c0.4-0.1,0.5-0.5,0.6-1.2c0.1-0.9,0.1-2.6,0.1-4.6L207.3,66.9L207.3,66.9z M209,68.7c0,0.1,0,0.2,0.1,0.3c0.3,0.2,1.3,0.3,2.2,0.3
			c0.5,0,1.1-0.1,1.6-0.4c0.7-0.5,1.3-1.6,1.3-3.3c0-2.6-1.4-4.2-3.7-4.2c-0.6,0-1.2,0.1-1.4,0.1c-0.1,0-0.2,0.1-0.2,0.3V68.7
			L209,68.7z"/>
		<path class="st0" d="M227.6,66.9c0-3.3,0-3.9,0-4.6c0-0.7-0.2-1.1-0.9-1.2c-0.2,0-0.5-0.1-0.7-0.1c-0.1,0-0.2,0-0.2-0.1
			c0-0.1,0.1-0.2,0.3-0.2c1,0,2.3,0.1,2.4,0.1c0.3,0,1.6-0.1,2.9-0.1c2.1,0,6-0.2,8.5,2.4c1.1,1.1,2.1,2.9,2.1,5.4
			c0,2.7-1.1,4.7-2.3,6c-0.9,1-2.8,2.4-6.4,2.4c-0.9,0-2-0.1-2.9-0.1c-0.9-0.1-1.6-0.1-1.8-0.1c0,0-0.4,0-0.9,0c-0.4,0-0.9,0-1.2,0
			c-0.2,0-0.3,0-0.3-0.2c0-0.1,0-0.1,0.2-0.1c0.2,0,0.4,0,0.6-0.1c0.4-0.1,0.5-0.5,0.6-1.2c0.1-0.9,0.1-2.6,0.1-4.6L227.6,66.9
			L227.6,66.9z M229.3,69.1c0,2.2,0,4.2,0,4.6c0,0.5,0.1,1.4,0.2,1.6c0.3,0.4,1.1,0.9,3.6,0.9c2,0,3.8-0.7,5-2
			c1.1-1.1,1.7-3.1,1.7-5.1c0-2.7-1.2-4.4-2-5.3c-2-2.1-4.4-2.4-6.9-2.4c-0.4,0-1.2,0.1-1.4,0.1c-0.2,0.1-0.3,0.2-0.3,0.4
			c0,0.7,0,2.9,0,4.5L229.3,69.1L229.3,69.1L229.3,69.1z"/>
	</g>
</g>
</svg>
