<?xml version="1.0" encoding="utf-8"?>
<!-- Generator: Adobe Illustrator 24.1.2, SVG Export Plug-In . SVG Version: 6.00 Build 0)  -->
<svg version="1.1" id="Layer_1" xmlns="http://www.w3.org/2000/svg" xmlns:xlink="http://www.w3.org/1999/xlink" x="0px" y="0px"
	 viewBox="0 0 829.2 180" style="enable-background:new 0 0 829.2 180;" xml:space="preserve">
<style type="text/css">
	.st0{fill:#00053E;}
</style>
<g>
	<g>
		<path class="st0" d="M87,169.8c-47.1,0-77.9-42-79.2-43.8c-2.9-4.1-2-9.8,2.1-12.7c4.1-2.9,9.7-2,12.7,2.1
			c0.3,0.4,26.7,36.3,64.5,36.3c0.3,0,0.7,0,1,0c28.9-0.5,57.7-21.6,85.5-62.9C203,45.2,237.5,22,276.1,19.8
			c68.4-3.6,123.4,59.9,125.7,62.6c3.3,3.8,2.8,9.6-1,12.8c-3.8,3.3-9.6,2.8-12.8-1c-0.5-0.6-51.6-59.4-110.9-56.2
			c-32.6,1.8-62.3,22.3-88.4,60.9c-31.4,46.5-65.2,70.4-100.5,70.9C87.8,169.8,87.4,169.8,87,169.8"/>
		<path class="st0" d="M15.2,129.8c-1.8,0-3.7-0.6-5.3-1.7c-4.1-3-5-8.6-2-12.7c0.8-1.1,84.3-114.2,180.9-68.6
			c145.5,68.8,200.3,34.6,200.8,34.2c4.1-2.9,9.8-2,12.7,2.1c2.9,4.1,2,9.8-2.1,12.7c-2.4,1.8-61.7,41.8-219.1-32.5
			C97.9,23.9,23.3,124.9,22.6,126C20.8,128.4,18,129.8,15.2,129.8"/>
		<path class="st0" d="M273.1,173.6c-18.1,0-37.8-4.2-58.7-14.5C88.7,97.4,19.8,128.5,19.1,128.9c-4.5,2.1-9.9,0.2-12.1-4.3
			c-2.2-4.5-0.3-9.9,4.2-12.1c3.1-1.5,76.8-35.6,211.1,30.3c97.6,47.9,162-54.8,164.7-59.2c2.6-4.3,8.2-5.6,12.5-3s5.6,8.2,3,12.5
			C402,94,352.1,173.6,273.1,173.6"/>
	</g>
	<g>
		<polygon class="st0" points="462.5,134.8 462.5,119.5 507.7,60.4 462.5,60.4 462.5,43.1 534.4,43.1 534.4,57.5 488.5,117.3 
			535.2,117.3 535.2,134.8 		"/>
		<path class="st0" d="M540.6,88.8c0-26.6,19.3-48,46.5-48c27.5,0,45,20.9,45,49.7v4.9h-70.6c1.5,13.7,11.8,25.2,29,25.2
			c9.1,0,19.5-3.6,26.2-10.2l9.1,13.1c-9.3,8.7-22.8,13.5-37.2,13.5C560.9,137,540.6,117.8,540.6,88.8 M586.9,57.1
			c-16.9,0-24.8,13.1-25.6,24.1h51.6C612.3,70.4,604.9,57.1,586.9,57.1"/>
		<path class="st0" d="M650.3,113.3V60.4h-15.2V43.1h15.2v-25h19.9v25h18.6v17.3h-18.6v48c0,6.3,3,11,8.7,11c3.8,0,7.2-1.7,8.7-3.4
			l4.8,15.2c-3.6,3.2-9.5,5.9-18.6,5.9C658.3,137,650.3,128.6,650.3,113.3"/>
		<path class="st0" d="M747.3,134.8V60.4h-15.2V43.1h15.2V38c0-20.5,12.1-31.7,28.8-31.7c6.4,0,12,1.1,16.1,3.4l-4.4,15
			c-2.1-1.3-4.7-2.1-8-2.1c-8,0-12.7,5.1-12.7,15.4v5.1h18.6v17.3h-18.6v74.4h-19.8V134.8z"/>
		<g>
			<path class="st0" d="M798.6,19.6c0-6.9,5.5-12.3,12.3-12.3s12.3,5.5,12.3,12.3s-5.5,12.3-12.3,12.3S798.6,26.4,798.6,19.6"/>
			<rect x="800.9" y="43.1" class="st0" width="19.9" height="91.6"/>
		</g>
		<g>
			<path class="st0" d="M701.7,43.1h19.9v91.6h-19.9V43.1z"/>
			<path class="st0" d="M699.4,19.6c0-6.8,5.5-12.3,12.3-12.3S724,12.8,724,19.6s-5.5,12.3-12.3,12.3S699.4,26.4,699.4,19.6"/>
		</g>
	</g>
</g>
</svg>
