<?xml version="1.0" encoding="utf-8"?>
<svg version="1.1" id="Zetifi" xmlns="http://www.w3.org/2000/svg" xmlns:xlink="http://www.w3.org/1999/xlink" x="0px" y="0px"
	 viewBox="0 0 86 19" style="enable-background:new 0 0 86 19;" xml:space="preserve">
<style type="text/css">
	.st0{fill:#00BCE7;}
	.st1{fill:#283590;}
	.st2{fill:#00053E;}
</style>
<g>
	<g>
		<path class="st0" d="M9.4,17.7c-4.8,0-8-4.3-8.1-4.5c-0.3-0.4-0.2-1,0.2-1.3c0.4-0.3,1-0.2,1.3,0.2c0,0,2.7,3.7,6.6,3.7
			c0,0,0.1,0,0.1,0c3,0,5.9-2.2,8.8-6.4c3-4.5,6.5-6.8,10.5-7.1c7-0.4,12.6,6.1,12.9,6.4c0.3,0.4,0.3,1-0.1,1.3
			c-0.4,0.3-1,0.3-1.3-0.1C40.2,9.9,35,3.9,28.9,4.2c-3.3,0.2-6.4,2.3-9.1,6.2c-3.2,4.8-6.7,7.2-10.3,7.3
			C9.5,17.7,9.5,17.7,9.4,17.7"/>
		<path class="st1" d="M2.1,13.6c-0.2,0-0.4-0.1-0.5-0.2c-0.4-0.3-0.5-0.9-0.2-1.3C1.4,12,10,0.4,19.9,5.1c14.9,7,20.5,3.5,20.6,3.5
			c0.4-0.3,1-0.2,1.3,0.2c0.3,0.4,0.2,1-0.2,1.3c-0.3,0.2-6.3,4.3-22.4-3.3c-8.5-4-16.1,6.3-16.2,6.4C2.7,13.4,2.4,13.6,2.1,13.6"/>
		<path class="st2" d="M28.5,18.1c-1.9,0-3.9-0.4-6-1.5c-12.9-6.3-19.9-3.1-20-3.1c-0.5,0.2-1,0-1.2-0.4c-0.2-0.5,0-1,0.4-1.2
			c0.3-0.2,7.9-3.6,21.6,3.1c10,4.9,16.6-5.6,16.9-6.1c0.3-0.4,0.8-0.6,1.3-0.3c0.4,0.3,0.6,0.8,0.3,1.3
			C41.7,9.9,36.6,18.1,28.5,18.1"/>
	</g>
	<g>
		<polygon class="st2" points="47.9,14.1 47.9,12.5 52.5,6.5 47.9,6.5 47.9,4.7 55.3,4.7 55.3,6.2 50.6,12.3 55.3,12.3 55.3,14.1 		
			"/>
		<path class="st2" d="M55.9,9.4c0-2.7,2-4.9,4.8-4.9c2.8,0,4.6,2.1,4.6,5.1v0.5H58c0.2,1.4,1.2,2.6,3,2.6c0.9,0,2-0.4,2.7-1
			l0.9,1.3c-1,0.9-2.3,1.4-3.8,1.4C58,14.3,55.9,12.4,55.9,9.4 M60.6,6.1c-1.7,0-2.5,1.3-2.6,2.5h5.3C63.2,7.5,62.5,6.1,60.6,6.1"/>
		<path class="st2" d="M67.1,11.9V6.5h-1.6V4.7h1.6V2.1h2v2.6h1.9v1.8h-1.9v4.9c0,0.6,0.3,1.1,0.9,1.1c0.4,0,0.7-0.2,0.9-0.3
			l0.5,1.6c-0.4,0.3-1,0.6-1.9,0.6C67.9,14.3,67.1,13.5,67.1,11.9"/>
		<path class="st2" d="M77.1,14.1V6.5h-1.6V4.7h1.6V4.2c0-2.1,1.2-3.2,3-3.2c0.7,0,1.2,0.1,1.7,0.3l-0.4,1.5
			c-0.2-0.1-0.5-0.2-0.8-0.2c-0.8,0-1.3,0.5-1.3,1.6v0.5H81v1.8h-1.9v7.6H77.1z"/>
		<g>
			<path class="st2" d="M82.3,2.3c0-0.7,0.6-1.3,1.3-1.3c0.7,0,1.3,0.6,1.3,1.3c0,0.7-0.6,1.3-1.3,1.3C82.9,3.6,82.3,3,82.3,2.3"/>
			<rect x="82.5" y="4.7" class="st2" width="2" height="9.4"/>
		</g>
		<g>
			<path class="st2" d="M72.4,4.7h2v9.4h-2V4.7z"/>
			<path class="st2" d="M72.2,2.3c0-0.7,0.6-1.3,1.3-1.3c0.7,0,1.3,0.6,1.3,1.3c0,0.7-0.6,1.3-1.3,1.3C72.7,3.6,72.2,3,72.2,2.3"/>
		</g>
	</g>
</g>
</svg>
